<svg width="203" height="81" viewBox="0 0 203 81" fill="none" xmlns="http://www.w3.org/2000/svg">
<path d="M0.714276 62V6H9.35428V53.68H35.5943V62H0.714276ZM63.3193 62.8C59.2127 62.8 55.5327 61.8667 52.2793 60C49.0793 58.08 46.546 55.4933 44.6793 52.24C42.8127 48.9333 41.8793 45.1733 41.8793 40.96C41.8793 36.7467 42.8127 33.0133 44.6793 29.76C46.546 26.4533 49.0793 23.8667 52.2793 22C55.5327 20.08 59.2127 19.12 63.3193 19.12C67.3727 19.12 70.9993 20.08 74.1993 22C77.4527 23.8667 80.0127 26.4533 81.8793 29.76C83.746 33.0133 84.6793 36.7467 84.6793 40.96C84.6793 45.1733 83.746 48.9333 81.8793 52.24C80.0127 55.4933 77.4527 58.08 74.1993 60C70.9993 61.8667 67.3727 62.8 63.3193 62.8ZM63.3193 55.28C65.826 55.28 68.066 54.6667 70.0393 53.44C72.0127 52.16 73.5593 50.4533 74.6793 48.32C75.7993 46.1333 76.3327 43.68 76.2793 40.96C76.3327 38.1867 75.7993 35.7333 74.6793 33.6C73.5593 31.4133 72.0127 29.7067 70.0393 28.48C68.066 27.2533 65.826 26.64 63.3193 26.64C60.8127 26.64 58.546 27.28 56.5193 28.56C54.546 29.7867 52.9993 31.4933 51.8793 33.68C50.7593 35.8133 50.226 38.24 50.2793 40.96C50.226 43.68 50.7593 46.1333 51.8793 48.32C52.9993 50.4533 54.546 52.16 56.5193 53.44C58.546 54.6667 60.8127 55.28 63.3193 55.28ZM111.935 80.4C108.948 80.4 105.962 79.92 102.975 78.96C100.042 78.0533 97.6683 76.8533 95.855 75.36L98.895 68.96C99.9617 69.76 101.215 70.4533 102.655 71.04C104.095 71.68 105.615 72.16 107.215 72.48C108.815 72.8533 110.388 73.04 111.935 73.04C114.868 73.04 117.322 72.56 119.295 71.6C121.268 70.64 122.762 69.2267 123.775 67.36C124.788 65.4933 125.295 63.1733 125.295 60.4V52.32L126.175 52.88C125.908 54.5333 125.028 56.1333 123.535 57.68C122.095 59.1733 120.282 60.4 118.095 61.36C115.908 62.32 113.668 62.8 111.375 62.8C107.375 62.8 103.802 61.8667 100.655 60C97.5617 58.08 95.1083 55.4933 93.295 52.24C91.4817 48.9333 90.575 45.1733 90.575 40.96C90.575 36.7467 91.455 33.0133 93.215 29.76C95.0283 26.4533 97.4817 23.8667 100.575 22C103.722 20.08 107.242 19.12 111.135 19.12C112.735 19.12 114.282 19.3333 115.775 19.76C117.268 20.1333 118.655 20.6933 119.935 21.44C121.215 22.1333 122.362 22.9067 123.375 23.76C124.388 24.6133 125.215 25.52 125.855 26.48C126.495 27.44 126.895 28.3467 127.055 29.2L125.295 29.84V20H133.535V59.44C133.535 62.8 133.028 65.76 132.015 68.32C131.055 70.9333 129.642 73.12 127.775 74.88C125.908 76.6933 123.642 78.0533 120.975 78.96C118.308 79.92 115.295 80.4 111.935 80.4ZM112.255 55.2C114.868 55.2 117.188 54.5867 119.215 53.36C121.242 52.1333 122.815 50.4533 123.935 48.32C125.055 46.1867 125.615 43.7333 125.615 40.96C125.615 38.1867 125.028 35.7333 123.855 33.6C122.735 31.4133 121.162 29.7067 119.135 28.48C117.162 27.2533 114.868 26.64 112.255 26.64C109.695 26.64 107.402 27.28 105.375 28.56C103.402 29.7867 101.828 31.4933 100.655 33.68C99.535 35.8133 98.975 38.24 98.975 40.96C98.975 43.68 99.535 46.1333 100.655 48.32C101.828 50.4533 103.402 52.1333 105.375 53.36C107.402 54.5867 109.695 55.2 112.255 55.2ZM145.925 62V20H154.165V62H145.925ZM149.925 10.72C148.165 10.72 146.805 10.2667 145.845 9.36C144.885 8.45333 144.405 7.17333 144.405 5.52C144.405 3.97333 144.885 2.72 145.845 1.76C146.858 0.799998 148.218 0.319998 149.925 0.319998C151.685 0.319998 153.045 0.773332 154.005 1.68C154.965 2.58666 155.445 3.86666 155.445 5.52C155.445 7.06666 154.938 8.32 153.925 9.28C152.965 10.24 151.632 10.72 149.925 10.72ZM166.308 62V20H174.548V28.64L173.108 29.6C173.641 27.7333 174.681 26.0267 176.228 24.48C177.774 22.88 179.614 21.6 181.748 20.64C183.881 19.6267 186.068 19.12 188.308 19.12C191.508 19.12 194.174 19.76 196.308 21.04C198.441 22.2667 200.041 24.16 201.108 26.72C202.174 29.28 202.708 32.5067 202.708 36.4V62H194.468V36.96C194.468 34.56 194.148 32.5867 193.508 31.04C192.868 29.44 191.881 28.2933 190.548 27.6C189.214 26.8533 187.561 26.5333 185.588 26.64C183.988 26.64 182.521 26.9067 181.188 27.44C179.854 27.92 178.681 28.6133 177.668 29.52C176.708 30.4267 175.934 31.4933 175.348 32.72C174.814 33.8933 174.548 35.1733 174.548 36.56V62H170.468C169.774 62 169.081 62 168.388 62C167.694 62 167.001 62 166.308 62Z" fill="#4D4D61"/>
</svg>
