<svg width="200" height="106" viewBox="0 0 200 106" fill="none" xmlns="http://www.w3.org/2000/svg">
<path d="M68.6672 72.1563C68.7126 71.6802 68.86 71.34 69.1094 71.136C69.3815 70.9319 69.6989 70.8299 70.0617 70.8299C70.5832 70.8299 70.946 70.9659 71.15 71.238C71.3768 71.5328 71.5015 72.0543 71.5242 72.8025V76.7138V80.625V85.0804C71.5242 85.6019 71.4221 85.9761 71.2181 86.2028C71.014 86.4522 70.6512 86.5769 70.1297 86.5769C69.2228 86.5769 68.7693 86.1121 68.7693 85.1825V72.1563H68.6672ZM69.8916 66.1364C69.3248 66.1364 68.8713 65.9436 68.5312 65.5582C68.1911 65.1954 68.0437 64.7193 68.0891 64.1297C68.1798 63.5629 68.4178 63.1207 68.8033 62.8033C69.1887 62.4859 69.6309 62.3272 70.1297 62.3272C70.7419 62.3272 71.2181 62.4972 71.5582 62.8373C71.8983 63.1774 72.0683 63.6309 72.0683 64.1978C72.0683 64.8326 71.8756 65.3088 71.4901 65.6262C71.1047 65.9436 70.5945 66.1024 69.9597 66.1024L69.8916 66.1364Z" fill="#39394A"/>
<path d="M75.7466 78.3463V75.8295V74.0949V73.0746V72.4624V72.1563C75.7466 71.2493 76.2341 70.7959 77.2091 70.7959C77.98 70.7959 78.3995 71.2493 78.4675 72.1563L78.5355 73.5848C78.989 72.5871 79.6692 71.8502 80.5762 71.3741C81.4832 70.8979 82.4355 70.6598 83.4331 70.6598C84.5441 70.6598 85.5304 70.9659 86.3921 71.5781C87.231 72.1903 87.8092 72.9612 88.1266 73.8909C88.6028 72.9612 89.3057 72.179 90.2353 71.5441C91.1422 70.9319 92.1966 70.6258 93.3983 70.6258C95.3029 70.6258 96.6974 71.238 97.5816 72.4624C98.4659 73.6868 98.9081 75.2966 98.9081 77.2919V80.523C98.9081 81.9061 98.8741 83.5159 98.806 85.3525C98.806 86.1234 98.3299 86.5089 97.3776 86.5089C97.0148 86.5089 96.6974 86.4069 96.4253 86.2028C96.1532 85.9987 96.0171 85.7153 96.0171 85.3525C96.0625 83.1532 96.0965 81.4299 96.1192 80.1829C96.1418 78.9358 96.1532 78.1536 96.1532 77.8361C96.1532 74.7298 95.0648 73.1766 92.8881 73.1766C91.7091 73.1766 90.7455 73.5507 89.9972 74.299C89.249 75.0472 88.8635 76.1469 88.8408 77.598V81.0672C88.8408 81.8381 88.8408 82.5296 88.8408 83.1418C88.8408 83.754 88.8295 84.2869 88.8068 84.7403C88.8068 85.3299 88.7048 85.772 88.5007 86.0668C88.2967 86.3615 87.9112 86.4976 87.3444 86.4749C86.9589 86.4749 86.6528 86.3729 86.4261 86.1688C86.1993 85.9647 86.086 85.67 86.086 85.2845C86.1086 81.1125 86.1086 78.4256 86.086 77.2239C86.0633 76.0222 85.7685 75.0359 85.2017 74.265C84.6575 73.5167 83.8639 73.1426 82.8209 73.1426C79.964 73.1426 78.5355 75.0586 78.5355 78.8905L78.5696 85.4206C78.5242 86.1688 78.0367 86.5429 77.1071 86.5429C76.7443 86.5429 76.4269 86.4409 76.1548 86.2368C75.8827 86.0327 75.7466 85.738 75.7466 85.3525C75.7466 85.0578 75.7466 84.7743 75.7466 84.5023C75.7466 84.2302 75.758 83.9694 75.7807 83.72L75.8827 78.1422L75.7466 78.3463Z" fill="#39394A"/>
<path d="M104.597 79.5027C104.62 80.7497 105.085 81.8381 105.992 82.7677C106.876 83.6747 108.021 84.1281 109.427 84.1281C110.765 84.1281 112 83.754 113.134 83.0058C113.701 82.7337 114.075 82.5976 114.256 82.5976C114.574 82.5976 114.869 82.7337 115.141 83.0058C115.413 83.2779 115.549 83.5726 115.549 83.8901C115.549 84.4116 115.243 84.8537 114.63 85.2165C113.247 86.1915 111.411 86.679 109.121 86.679C107.103 86.679 105.38 85.9647 103.951 84.5363C102.5 83.1078 101.763 81.3846 101.74 79.3666C101.74 77.0539 102.477 75.0359 103.951 73.3127C105.402 71.6121 107.205 70.7619 109.359 70.7619C111.241 70.7619 112.817 71.3854 114.086 72.6325C115.379 73.9022 116.025 75.308 116.025 76.8498C116.025 77.7794 115.878 78.4256 115.583 78.7884C115.265 79.1739 114.551 79.3779 113.44 79.4006C113.055 79.4233 112.669 79.4346 112.284 79.4346C111.898 79.4346 111.49 79.4346 111.059 79.4346H107.896H104.529L104.597 79.5027ZM109.427 73.1086C108.134 73.1086 107.046 73.5507 106.162 74.435C105.277 75.3193 104.767 76.3396 104.631 77.496C109.892 77.4053 112.647 77.3373 112.896 77.2919C113.168 77.2693 113.304 77.1672 113.304 76.9858C113.304 75.8748 112.93 74.9565 112.182 74.231C111.411 73.5054 110.515 73.1426 109.495 73.1426L109.427 73.1086Z" fill="#39394A"/>
<path d="M131.9 70.6938C133.691 70.6938 135.188 70.9659 136.389 71.5101C137.002 71.8275 137.308 72.1903 137.308 72.5984C137.308 73.4374 136.922 73.8568 136.151 73.8568C135.97 73.8568 135.437 73.7208 134.553 73.4487C133.669 73.1766 132.762 73.0406 131.832 73.0406C130.925 73.0406 130.143 73.2673 129.485 73.7208C128.828 74.1743 128.499 74.7525 128.499 75.4554C128.499 75.7955 128.567 76.0676 128.703 76.2716C128.839 76.4757 129.1 76.6457 129.485 76.7818C129.916 76.9405 130.222 77.0312 130.403 77.0539C130.517 77.0765 130.676 77.1106 130.88 77.1559C131.106 77.1786 131.378 77.2126 131.696 77.2579C131.923 77.3033 132.081 77.3373 132.172 77.36C133.963 77.6094 135.346 78.0515 136.321 78.6864C137.319 79.3439 137.818 80.3869 137.818 81.8154C137.818 83.3572 137.24 84.5476 136.083 85.3865C134.904 86.2481 133.396 86.679 131.56 86.679C130.154 86.679 128.805 86.4749 127.513 86.0668C126.22 85.6586 125.574 85.1938 125.574 84.6723C125.574 83.72 125.971 83.2439 126.764 83.2439C126.946 83.2439 127.581 83.4139 128.669 83.754C129.757 84.0941 130.778 84.2642 131.73 84.2642C132.682 84.2642 133.487 84.0601 134.145 83.652C134.802 83.2439 135.131 82.677 135.131 81.9514C135.131 81.2032 134.836 80.6704 134.247 80.3529C133.635 80.0355 132.694 79.7747 131.424 79.5707C131.084 79.5253 130.778 79.48 130.506 79.4346C130.233 79.3893 129.995 79.3439 129.791 79.2986C129.406 79.2306 128.918 79.0945 128.329 78.8905C127.762 78.6864 127.308 78.4483 126.968 78.1762C126.651 77.9268 126.368 77.564 126.118 77.0879C125.891 76.6571 125.778 76.1469 125.778 75.5574C125.778 74.1743 126.39 73.0179 127.615 72.0883C128.862 71.1586 130.267 70.6938 131.832 70.6938H131.9Z" fill="#39394A"/>
<path d="M140.914 63.1434C140.914 62.0097 141.424 61.4429 142.445 61.4429C143.329 61.4429 143.771 61.953 143.771 62.9734V64.3338C143.771 64.6512 143.771 65.0934 143.771 65.6602C143.771 66.2271 143.76 66.9073 143.737 67.7009C143.715 68.4945 143.703 69.3901 143.703 70.3877C143.703 71.3627 143.703 72.4511 143.703 73.6528C144.157 72.7232 144.86 71.9636 145.812 71.3741C146.719 70.8072 147.773 70.5238 148.975 70.5238C150.766 70.5238 152.195 71.17 153.26 72.4624C154.326 73.7775 154.859 75.41 154.859 77.36V85.1485C154.859 86.0101 154.36 86.4409 153.362 86.4409C152.954 86.4409 152.614 86.3388 152.342 86.1348C152.07 85.9307 151.934 85.636 151.934 85.2505C151.979 83.8901 152.013 82.575 152.036 81.3052C152.081 80.0355 152.104 78.8111 152.104 77.6321C152.104 76.2263 151.764 75.1266 151.084 74.333C150.403 73.5621 149.451 73.1766 148.227 73.1766C146.957 73.1766 145.869 73.6641 144.962 74.6391C144.055 75.6141 143.601 76.8385 143.601 78.3123V82.0875V85.2845C143.601 86.1234 143.125 86.5429 142.173 86.5429C141.266 86.5429 140.812 86.1348 140.812 85.3185C140.812 85.0011 140.812 84.627 140.812 84.1962C140.812 83.7654 140.824 83.2892 140.846 82.7677C140.869 82.2462 140.88 81.8154 140.88 81.4753C140.88 81.1352 140.88 80.8858 140.88 80.727L140.846 63.2454L140.914 63.1434Z" fill="#39394A"/>
<path d="M160.395 79.5027C160.418 80.7497 160.883 81.8381 161.79 82.7677C162.674 83.6747 163.819 84.1281 165.225 84.1281C166.563 84.1281 167.798 83.754 168.932 83.0058C169.499 82.7337 169.873 82.5976 170.055 82.5976C170.372 82.5976 170.667 82.7337 170.939 83.0058C171.211 83.2779 171.347 83.5726 171.347 83.8901C171.347 84.4116 171.041 84.8537 170.429 85.2165C169.046 86.1915 167.209 86.679 164.919 86.679C162.901 86.679 161.178 85.9647 159.749 84.5363C158.298 83.1078 157.561 81.3846 157.539 79.3666C157.539 77.0539 158.275 75.0359 159.749 73.3127C161.2 71.6121 163.003 70.7619 165.157 70.7619C167.039 70.7619 168.615 71.3854 169.884 72.6325C171.177 73.9022 171.823 75.308 171.823 76.8498C171.823 77.7794 171.676 78.4256 171.381 78.7884C171.064 79.1739 170.349 79.3779 169.238 79.4006C168.853 79.4233 168.467 79.4346 168.082 79.4346C167.696 79.4346 167.288 79.4346 166.858 79.4346H163.694H160.327L160.395 79.5027ZM165.225 73.1086C163.933 73.1086 162.844 73.5507 161.96 74.435C161.076 75.3193 160.565 76.3396 160.429 77.496C165.69 77.4053 168.445 77.3373 168.694 77.2919C168.966 77.2693 169.102 77.1672 169.102 76.9858C169.102 75.8748 168.728 74.9565 167.98 74.231C167.209 73.5054 166.313 73.1426 165.293 73.1426L165.225 73.1086Z" fill="#39394A"/>
<path d="M176.711 79.5027C176.734 80.7497 177.199 81.8381 178.106 82.7677C178.99 83.6747 180.135 84.1281 181.541 84.1281C182.879 84.1281 184.114 83.754 185.248 83.0058C185.815 82.7337 186.189 82.5976 186.371 82.5976C186.688 82.5976 186.983 82.7337 187.255 83.0058C187.527 83.2779 187.663 83.5726 187.663 83.8901C187.663 84.4116 187.357 84.8537 186.745 85.2165C185.362 86.1915 183.525 86.679 181.235 86.679C179.217 86.679 177.494 85.9647 176.065 84.5363C174.614 83.1078 173.877 81.3846 173.855 79.3666C173.855 77.0539 174.591 75.0359 176.065 73.3127C177.516 71.6121 179.319 70.7619 181.473 70.7619C183.355 70.7619 184.931 71.3854 186.2 72.6325C187.493 73.9022 188.139 75.308 188.139 76.8498C188.139 77.7794 187.992 78.4256 187.697 78.7884C187.38 79.1739 186.665 79.3779 185.554 79.4006C185.169 79.4233 184.783 79.4346 184.398 79.4346C184.012 79.4346 183.604 79.4346 183.174 79.4346H180.011H176.643L176.711 79.5027ZM181.541 73.1086C180.249 73.1086 179.16 73.5507 178.276 74.435C177.392 75.3193 176.882 76.3396 176.745 77.496C182.006 77.4053 184.761 77.3373 185.01 77.2919C185.282 77.2693 185.418 77.1672 185.418 76.9858C185.418 75.8748 185.044 74.9565 184.296 74.231C183.525 73.5054 182.629 73.1426 181.609 73.1426L181.541 73.1086Z" fill="#39394A"/>
<path d="M190.205 73.5848C189.411 73.5848 189.014 73.188 189.014 72.3944C189.014 71.5554 189.456 71.136 190.341 71.136H192.449L192.483 68.3471C192.483 67.0547 192.982 66.4085 193.98 66.4085C194.433 66.4085 194.739 66.5218 194.898 66.7486C195.057 66.9753 195.136 67.3608 195.136 67.9049C195.136 68.2904 195.125 68.7552 195.102 69.2994C195.102 69.8209 195.091 70.4217 195.068 71.102L198.503 71.068C199.342 71.068 199.762 71.4761 199.762 72.2923C199.762 73.1086 199.342 73.5167 198.503 73.5167H195.102V80.2509C195.102 81.6113 195.261 82.609 195.578 83.2439C195.873 83.8561 196.44 84.1621 197.279 84.1621C197.551 84.1621 197.857 84.1055 198.197 83.9921C198.537 83.8787 198.775 83.822 198.911 83.822C199.229 83.822 199.49 83.9467 199.694 84.1962C199.898 84.4456 200 84.7177 200 85.0124C200 85.5793 199.773 85.9874 199.319 86.2368C198.73 86.5089 198.004 86.6449 197.143 86.6449C195.488 86.6449 194.286 86.1688 193.538 85.2165C192.789 84.2642 192.415 82.7337 192.415 80.625C192.415 80.2396 192.415 79.7521 192.415 79.1625C192.415 78.5504 192.427 77.8361 192.449 77.0199C192.472 76.2036 192.483 75.5007 192.483 74.9112C192.483 74.3217 192.483 73.8342 192.483 73.4487H190.239L190.205 73.5848Z" fill="#39394A"/>
<path fill-rule="evenodd" clip-rule="evenodd" d="M63.9919 18.8366C62.9638 18.5606 61.9261 18.3297 60.8817 18.1443L62.2086 10.6742C63.4679 10.8978 64.7193 11.1762 65.9591 11.509L63.9919 18.8366ZM68.5163 20.3719C68.0244 20.1686 67.5291 19.9763 67.0307 19.795L69.6235 12.6648C70.2245 12.8833 70.8217 13.1152 71.4147 13.3603C72.0078 13.6055 72.5944 13.863 73.1743 14.1326L69.9756 21.0124C69.4947 20.7888 69.0082 20.5752 68.5163 20.3719ZM57.7233 17.7231C56.6649 17.6283 55.6028 17.5794 54.5402 17.5763L54.5619 9.98933C55.8432 9.99299 57.1238 10.0521 58.4 10.1663L57.7233 17.7231ZM75.4954 24.1852C74.6249 23.5792 73.7271 23.0099 72.8041 22.4794L76.5851 15.9016C77.6981 16.5414 78.7808 17.2279 79.8305 17.9587L75.4954 24.1852ZM51.3564 17.7049C50.2994 17.7935 49.2448 17.9278 48.1956 18.108L46.9113 10.6305C48.1765 10.4132 49.4482 10.2512 50.7228 10.1444L51.3564 17.7049ZM80.3869 28.2609C79.6323 27.5127 78.8457 26.7975 78.0293 26.1172L82.8859 20.2883C83.8703 21.1085 84.8188 21.9709 85.7287 22.8731L80.3869 28.2609ZM45.0815 18.7827C44.5686 18.9173 44.0577 19.0632 43.5492 19.2204C43.0406 19.3776 42.5365 19.5454 42.0371 19.7238L39.4853 12.5788C40.0875 12.3637 40.6953 12.1613 41.3084 11.9718C41.9215 11.7822 42.5376 11.6063 43.1561 11.4441L45.0815 18.7827ZM84.5041 33.1172C83.8884 32.2488 83.2365 31.4091 82.5506 30.6L88.3377 25.6937C89.1649 26.6693 89.951 27.682 90.6935 28.7292L84.5041 33.1172ZM39.0855 20.9242C38.1177 21.3675 37.1713 21.8518 36.2487 22.3751L32.5052 15.776C33.6177 15.1449 34.7589 14.5609 35.9261 14.0263L39.0855 20.9242ZM87.0089 37.1858C86.7598 36.7154 86.5011 36.2513 86.2329 35.7938L92.7781 31.9569C93.1015 32.5085 93.4135 33.068 93.7138 33.6352L87.0089 37.1858ZM33.5477 24.0656C32.6722 24.6678 31.8231 25.3076 31.0028 25.9832L26.1796 20.1266C27.1687 19.312 28.1925 18.5406 29.2483 17.8145L33.5477 24.0656ZM28.633 28.1132C27.8755 28.8557 27.1491 29.6319 26.456 30.4399L20.6969 25.5008C21.5326 24.5264 22.4086 23.5904 23.322 22.695L28.633 28.1132ZM24.4882 32.9461C24.1791 33.3769 23.8787 33.8152 23.5874 34.2606C23.296 34.7061 23.0149 35.157 22.7441 35.6129L16.221 31.7384C16.5475 31.1886 16.8865 30.645 17.2377 30.1079C17.589 29.5709 17.9512 29.0424 18.324 28.5229L24.4882 32.9461ZM21.2368 38.4202C20.7743 39.379 20.3544 40.3557 19.9777 41.3472L12.8851 38.6533C13.3392 37.4576 13.8456 36.2799 14.4034 35.1237L21.2368 38.4202ZM18.9762 44.3721C18.686 45.3944 18.4403 46.4288 18.2395 47.4723L10.7891 46.0389C11.0312 44.7807 11.3275 43.5335 11.6774 42.3008L18.9762 44.3721ZM17.7733 50.6244C17.6636 51.6794 17.5993 52.7406 17.5811 53.8049L9.99522 53.6752C10.0172 52.3916 10.0947 51.112 10.227 49.8398L17.7733 50.6244ZM17.6644 56.9902C17.7012 57.5192 17.7495 58.0484 17.8093 58.5773C17.8691 59.1062 17.9402 59.6327 18.0225 60.1566L10.5274 61.3341C10.4282 60.7023 10.3424 60.0675 10.2703 59.4298C10.1982 58.7921 10.14 58.1541 10.0957 57.5162L17.6644 56.9902ZM18.6526 63.28C18.9081 64.3135 19.2077 65.3334 19.5502 66.3373L12.3696 68.7873C11.9566 67.5768 11.5953 66.3468 11.2872 65.1005L18.6526 63.28ZM20.7085 69.3057C21.1372 70.278 21.6078 71.2314 22.1189 72.1631L15.467 75.812C14.8507 74.6886 14.2833 73.5391 13.7664 72.3667L20.7085 69.3057ZM23.7707 74.8879C24.3592 75.7703 24.9866 76.6285 25.6516 77.4598L19.7269 82.1991C18.925 81.1967 18.1684 80.1618 17.4587 79.0977L23.7707 74.8879ZM27.7477 79.8597C28.1135 80.2436 28.4882 80.6203 28.8717 80.9895C29.2551 81.3586 29.6458 81.7188 30.0434 82.0697L25.0225 87.7577C24.5431 87.3346 24.0721 86.9004 23.6097 86.4553C23.1474 86.0102 22.6956 85.556 22.2546 85.093L27.7477 79.8597ZM32.5211 84.0731C33.3771 84.706 34.2585 85.3003 35.1627 85.8549L31.1958 92.3223C30.1055 91.6535 29.0426 90.9368 28.0104 90.1736L32.5211 84.0731ZM37.9483 87.402C38.8987 87.8773 39.8693 88.3113 40.8572 88.7027L38.0623 95.7562C36.871 95.2842 35.7008 94.7609 34.5548 94.1878L37.9483 87.402ZM50.1018 91.0391C50.6284 91.1015 51.1573 91.1525 51.6881 91.1922L51.1226 98.7581C50.4827 98.7103 49.845 98.6487 49.21 98.5736L50.1018 91.0391ZM43.8675 89.7474C44.8836 90.0515 45.9143 90.3122 46.9567 90.5282L45.4174 97.9574C44.1603 97.6969 42.9175 97.3826 41.6921 97.0159L43.8675 89.7474Z" fill="#662D91"/>
<path fill-rule="evenodd" clip-rule="evenodd" d="M55.5054 41.5942C57.2272 41.5942 58.623 42.9901 58.623 44.7119L58.623 82.1239C58.623 83.8457 57.2272 85.2416 55.5054 85.2416C53.7835 85.2416 52.3877 83.8457 52.3877 82.1239L52.3877 44.7119C52.3877 42.9901 53.7835 41.5942 55.5054 41.5942Z" fill="#39394A"/>
<path fill-rule="evenodd" clip-rule="evenodd" d="M73.1719 53.0249C73.1719 54.7468 71.776 56.1426 70.0542 56.1426H49.2698C47.5479 56.1426 46.1521 54.7468 46.1521 53.0249C46.1521 51.3031 47.5479 49.9072 49.2698 49.9072H70.0542C71.776 49.9072 73.1719 51.3031 73.1719 53.0249Z" fill="#39394A"/>
</svg>
