<svg width="182" height="19" viewBox="0 0 182 19" fill="none" xmlns="http://www.w3.org/2000/svg">
<path d="M6.06219 18L0.710193 1.2H3.47019L6.71019 11.712C6.80619 11.968 6.89419 12.272 6.97419 12.624C7.05419 12.96 7.12619 13.304 7.19019 13.656C7.25419 14.008 7.31019 14.336 7.35819 14.64C7.42219 14.944 7.47819 15.192 7.52619 15.384L6.83019 15.36C7.07019 14.512 7.25419 13.856 7.38219 13.392C7.52619 12.928 7.63819 12.576 7.71819 12.336C7.79819 12.08 7.87019 11.864 7.93419 11.688L10.9582 4.104H13.2862L16.2142 11.688C16.3742 12.072 16.5102 12.456 16.6222 12.84C16.7502 13.208 16.8622 13.584 16.9582 13.968C17.0542 14.336 17.1582 14.728 17.2702 15.144L16.6462 15.312C16.7262 14.88 16.7822 14.544 16.8142 14.304C16.8622 14.048 16.9022 13.84 16.9342 13.68C16.9662 13.52 16.9982 13.368 17.0302 13.224C17.0622 13.064 17.1102 12.864 17.1742 12.624C17.2542 12.384 17.3582 12.056 17.4862 11.64L20.6782 1.2H23.4622L18.1102 18H16.3102L11.8702 7.488L12.0862 7.584L7.81419 18H6.06219ZM30.516 18.24C29.22 18.24 28.068 17.968 27.06 17.424C26.068 16.864 25.284 16.104 24.708 15.144C24.148 14.184 23.868 13.08 23.868 11.832C23.868 10.84 24.028 9.936 24.348 9.12C24.668 8.304 25.108 7.6 25.668 7.008C26.244 6.4 26.924 5.936 27.708 5.616C28.508 5.28 29.372 5.112 30.3 5.112C31.116 5.112 31.876 5.272 32.58 5.592C33.284 5.896 33.892 6.32 34.404 6.864C34.932 7.408 35.332 8.056 35.604 8.808C35.892 9.544 36.028 10.352 36.012 11.232L35.988 12.288H25.692L25.14 10.32H33.852L33.492 10.728V10.152C33.444 9.624 33.268 9.152 32.964 8.736C32.66 8.32 32.276 7.992 31.812 7.752C31.348 7.512 30.844 7.392 30.3 7.392C29.436 7.392 28.708 7.56 28.116 7.896C27.524 8.216 27.076 8.696 26.772 9.336C26.468 9.96 26.316 10.736 26.316 11.664C26.316 12.544 26.5 13.312 26.868 13.968C27.236 14.608 27.756 15.104 28.428 15.456C29.1 15.808 29.876 15.984 30.756 15.984C31.38 15.984 31.956 15.88 32.484 15.672C33.028 15.464 33.612 15.088 34.236 14.544L35.484 16.296C35.1 16.68 34.628 17.016 34.068 17.304C33.524 17.592 32.94 17.824 32.316 18C31.708 18.16 31.108 18.24 30.516 18.24ZM38.2234 18V0.24H40.6954V18H38.2234ZM43.7238 18V0.24H46.1958V18H43.7238ZM54.2938 18.24C53.1258 18.24 52.0778 17.952 51.1498 17.376C50.2378 16.8 49.5098 16.016 48.9658 15.024C48.4378 14.032 48.1738 12.92 48.1738 11.688C48.1738 10.456 48.4378 9.344 48.9658 8.352C49.5098 7.36 50.2378 6.576 51.1498 6C52.0778 5.424 53.1258 5.136 54.2938 5.136C55.4138 5.136 56.4298 5.368 57.3418 5.832C58.2698 6.28 58.9738 6.896 59.4538 7.68L58.0858 9.36C57.8298 8.992 57.5018 8.656 57.1018 8.352C56.7018 8.048 56.2778 7.808 55.8298 7.632C55.3818 7.456 54.9498 7.368 54.5338 7.368C53.7658 7.368 53.0778 7.56 52.4698 7.944C51.8778 8.312 51.4058 8.824 51.0538 9.48C50.7018 10.136 50.5258 10.872 50.5258 11.688C50.5258 12.504 50.7098 13.24 51.0778 13.896C51.4458 14.536 51.9338 15.048 52.5418 15.432C53.1498 15.816 53.8218 16.008 54.5578 16.008C54.9898 16.008 55.4058 15.936 55.8058 15.792C56.2218 15.648 56.6218 15.432 57.0058 15.144C57.3898 14.856 57.7498 14.504 58.0858 14.088L59.4538 15.768C58.9418 16.488 58.2058 17.08 57.2458 17.544C56.3018 18.008 55.3178 18.24 54.2938 18.24ZM66.9264 18.24C65.6944 18.24 64.5904 17.96 63.6144 17.4C62.6544 16.824 61.8944 16.048 61.3344 15.072C60.7744 14.08 60.4944 12.952 60.4944 11.688C60.4944 10.424 60.7744 9.304 61.3344 8.328C61.8944 7.336 62.6544 6.56 63.6144 6C64.5904 5.424 65.6944 5.136 66.9264 5.136C68.1424 5.136 69.2304 5.424 70.1904 6C71.1664 6.56 71.9344 7.336 72.4944 8.328C73.0544 9.304 73.3344 10.424 73.3344 11.688C73.3344 12.952 73.0544 14.08 72.4944 15.072C71.9344 16.048 71.1664 16.824 70.1904 17.4C69.2304 17.96 68.1424 18.24 66.9264 18.24ZM66.9264 15.984C67.6784 15.984 68.3504 15.8 68.9424 15.432C69.5344 15.048 69.9984 14.536 70.3344 13.896C70.6704 13.24 70.8304 12.504 70.8144 11.688C70.8304 10.856 70.6704 10.12 70.3344 9.48C69.9984 8.824 69.5344 8.312 68.9424 7.944C68.3504 7.576 67.6784 7.392 66.9264 7.392C66.1744 7.392 65.4944 7.584 64.8864 7.968C64.2944 8.336 63.8304 8.848 63.4944 9.504C63.1584 10.144 62.9984 10.872 63.0144 11.688C62.9984 12.504 63.1584 13.24 63.4944 13.896C63.8304 14.536 64.2944 15.048 64.8864 15.432C65.4944 15.8 66.1744 15.984 66.9264 15.984ZM75.457 18V5.4H77.953V8.088L77.497 8.376C77.625 7.96 77.825 7.56 78.097 7.176C78.385 6.792 78.729 6.456 79.129 6.168C79.545 5.864 79.985 5.624 80.449 5.448C80.929 5.272 81.417 5.184 81.913 5.184C82.633 5.184 83.265 5.304 83.809 5.544C84.353 5.784 84.801 6.144 85.153 6.624C85.505 7.104 85.761 7.704 85.921 8.424L85.537 8.328L85.705 7.92C85.881 7.552 86.121 7.208 86.425 6.888C86.745 6.552 87.105 6.256 87.505 6C87.905 5.744 88.329 5.544 88.777 5.4C89.225 5.256 89.665 5.184 90.097 5.184C91.041 5.184 91.817 5.376 92.425 5.76C93.049 6.144 93.513 6.728 93.817 7.512C94.137 8.296 94.297 9.272 94.297 10.44V18H91.801V10.584C91.801 9.864 91.705 9.28 91.513 8.832C91.337 8.368 91.065 8.024 90.697 7.8C90.329 7.576 89.857 7.464 89.281 7.464C88.833 7.464 88.409 7.544 88.009 7.704C87.625 7.848 87.289 8.056 87.001 8.328C86.713 8.6 86.489 8.92 86.329 9.288C86.169 9.64 86.089 10.032 86.089 10.464V18H83.593V10.536C83.593 9.88 83.497 9.328 83.305 8.88C83.113 8.416 82.833 8.064 82.465 7.824C82.097 7.584 81.649 7.464 81.121 7.464C80.673 7.464 80.257 7.544 79.873 7.704C79.489 7.848 79.153 8.056 78.865 8.328C78.577 8.584 78.353 8.896 78.193 9.264C78.033 9.616 77.953 10 77.953 10.416V18H75.457ZM102.963 18.24C101.667 18.24 100.515 17.968 99.5075 17.424C98.5155 16.864 97.7315 16.104 97.1555 15.144C96.5955 14.184 96.3155 13.08 96.3155 11.832C96.3155 10.84 96.4755 9.936 96.7955 9.12C97.1155 8.304 97.5555 7.6 98.1155 7.008C98.6915 6.4 99.3715 5.936 100.155 5.616C100.955 5.28 101.819 5.112 102.747 5.112C103.563 5.112 104.323 5.272 105.027 5.592C105.731 5.896 106.339 6.32 106.851 6.864C107.379 7.408 107.779 8.056 108.051 8.808C108.339 9.544 108.475 10.352 108.459 11.232L108.435 12.288H98.1395L97.5875 10.32H106.299L105.939 10.728V10.152C105.891 9.624 105.715 9.152 105.411 8.736C105.107 8.32 104.723 7.992 104.259 7.752C103.795 7.512 103.291 7.392 102.747 7.392C101.883 7.392 101.155 7.56 100.563 7.896C99.9715 8.216 99.5235 8.696 99.2195 9.336C98.9155 9.96 98.7635 10.736 98.7635 11.664C98.7635 12.544 98.9475 13.312 99.3155 13.968C99.6835 14.608 100.203 15.104 100.875 15.456C101.547 15.808 102.323 15.984 103.203 15.984C103.827 15.984 104.403 15.88 104.931 15.672C105.475 15.464 106.059 15.088 106.683 14.544L107.931 16.296C107.547 16.68 107.075 17.016 106.515 17.304C105.971 17.592 105.387 17.824 104.763 18C104.155 18.16 103.555 18.24 102.963 18.24ZM117.45 18V1.2H124.458C125.53 1.2 126.434 1.36 127.17 1.68C127.906 2 128.458 2.48 128.826 3.12C129.21 3.744 129.402 4.512 129.402 5.424C129.402 6.336 129.146 7.112 128.634 7.752C128.138 8.392 127.442 8.832 126.546 9.072V8.592C127.298 8.752 127.954 9.04 128.514 9.456C129.074 9.856 129.506 10.36 129.81 10.968C130.13 11.576 130.29 12.272 130.29 13.056C130.29 13.856 130.162 14.568 129.906 15.192C129.666 15.8 129.298 16.312 128.802 16.728C128.322 17.144 127.738 17.464 127.05 17.688C126.362 17.896 125.578 18 124.698 18H117.45ZM120.042 15.504H124.554C125.21 15.504 125.762 15.408 126.21 15.216C126.674 15.024 127.026 14.744 127.266 14.376C127.522 13.992 127.65 13.536 127.65 13.008C127.65 12.512 127.514 12.088 127.242 11.736C126.986 11.384 126.618 11.12 126.138 10.944C125.658 10.752 125.09 10.656 124.434 10.656H120.042V15.504ZM120.042 8.16H124.314C124.794 8.16 125.218 8.064 125.586 7.872C125.97 7.68 126.266 7.416 126.474 7.08C126.698 6.744 126.81 6.36 126.81 5.928C126.81 5.208 126.57 4.656 126.09 4.272C125.61 3.888 124.922 3.696 124.026 3.696H120.042V8.16ZM137.464 18.24C136.424 18.24 135.472 17.952 134.608 17.376C133.76 16.8 133.08 16.016 132.568 15.024C132.056 14.032 131.8 12.912 131.8 11.664C131.8 10.4 132.056 9.28 132.568 8.304C133.096 7.312 133.8 6.536 134.68 5.976C135.576 5.416 136.576 5.136 137.68 5.136C138.336 5.136 138.936 5.232 139.48 5.424C140.024 5.616 140.496 5.888 140.896 6.24C141.312 6.576 141.648 6.968 141.904 7.416C142.176 7.864 142.344 8.344 142.408 8.856L141.856 8.664V5.4H144.352V18H141.856V15L142.432 14.832C142.336 15.264 142.136 15.688 141.832 16.104C141.544 16.504 141.168 16.864 140.704 17.184C140.256 17.504 139.752 17.76 139.192 17.952C138.648 18.144 138.072 18.24 137.464 18.24ZM138.112 15.96C138.864 15.96 139.528 15.776 140.104 15.408C140.68 15.04 141.128 14.536 141.448 13.896C141.784 13.24 141.952 12.496 141.952 11.664C141.952 10.848 141.784 10.12 141.448 9.48C141.128 8.84 140.68 8.336 140.104 7.968C139.528 7.6 138.864 7.416 138.112 7.416C137.376 7.416 136.72 7.6 136.144 7.968C135.584 8.336 135.136 8.84 134.8 9.48C134.48 10.12 134.32 10.848 134.32 11.664C134.32 12.496 134.48 13.24 134.8 13.896C135.136 14.536 135.584 15.04 136.144 15.408C136.72 15.776 137.376 15.96 138.112 15.96ZM152.632 18.24C151.464 18.24 150.416 17.952 149.488 17.376C148.576 16.8 147.848 16.016 147.304 15.024C146.776 14.032 146.512 12.92 146.512 11.688C146.512 10.456 146.776 9.344 147.304 8.352C147.848 7.36 148.576 6.576 149.488 6C150.416 5.424 151.464 5.136 152.632 5.136C153.752 5.136 154.768 5.368 155.68 5.832C156.608 6.28 157.312 6.896 157.792 7.68L156.424 9.36C156.168 8.992 155.84 8.656 155.44 8.352C155.04 8.048 154.616 7.808 154.168 7.632C153.72 7.456 153.288 7.368 152.872 7.368C152.104 7.368 151.416 7.56 150.808 7.944C150.216 8.312 149.744 8.824 149.392 9.48C149.04 10.136 148.864 10.872 148.864 11.688C148.864 12.504 149.048 13.24 149.416 13.896C149.784 14.536 150.272 15.048 150.88 15.432C151.488 15.816 152.16 16.008 152.896 16.008C153.328 16.008 153.744 15.936 154.144 15.792C154.56 15.648 154.96 15.432 155.344 15.144C155.728 14.856 156.088 14.504 156.424 14.088L157.792 15.768C157.28 16.488 156.544 17.08 155.584 17.544C154.64 18.008 153.656 18.24 152.632 18.24ZM161.857 14.064L161.737 11.376L167.761 5.4H171.097L161.857 14.064ZM159.601 18V0.24H162.073V18H159.601ZM168.097 18L163.345 12.456L165.097 10.848L171.265 18H168.097ZM179.282 12.216C179.17 11.208 179.066 10.168 178.97 9.096C178.89 8.008 178.826 6.936 178.778 5.88C178.73 4.824 178.706 3.824 178.706 2.88V1.2H181.298V2.88C181.298 3.872 181.274 4.912 181.226 6C181.178 7.088 181.106 8.168 181.01 9.24C180.93 10.296 180.834 11.288 180.722 12.216H179.282ZM179.93 18.264C179.402 18.264 178.994 18.112 178.706 17.808C178.418 17.488 178.274 17.04 178.274 16.464C178.274 15.936 178.426 15.504 178.73 15.168C179.034 14.832 179.434 14.664 179.93 14.664C180.458 14.664 180.866 14.824 181.154 15.144C181.442 15.448 181.586 15.888 181.586 16.464C181.586 16.992 181.434 17.424 181.13 17.76C180.826 18.096 180.426 18.264 179.93 18.264Z" fill="#ABABAC"/>
</svg>
