<svg width="294" height="24" viewBox="0 0 294 24" fill="none" xmlns="http://www.w3.org/2000/svg">
<path d="M1.95961 18.4473V5.84726H7.08961C7.77361 5.84726 8.39161 6.02127 8.94361 6.36927C9.50761 6.70527 9.95761 7.16727 10.2936 7.75526C10.6296 8.34327 10.7976 8.99727 10.7976 9.71727C10.7976 10.4373 10.6296 11.0913 10.2936 11.6793C9.95761 12.2673 9.50761 12.7413 8.94361 13.1013C8.39161 13.4493 7.77361 13.6233 7.08961 13.6233H3.90361V18.4473H1.95961ZM3.90361 11.7513H7.05361C7.37761 11.7513 7.67161 11.6613 7.93561 11.4813C8.19961 11.2893 8.40961 11.0433 8.56561 10.7433C8.73361 10.4313 8.81761 10.0893 8.81761 9.71727C8.81761 9.34527 8.73361 9.00927 8.56561 8.70927C8.40961 8.40927 8.19961 8.16926 7.93561 7.98927C7.67161 7.80927 7.37761 7.71927 7.05361 7.71927H3.90361V11.7513ZM12.3767 18.4473V8.99726H14.2487V11.9673L14.0687 11.2473C14.2007 10.7913 14.4227 10.3773 14.7347 10.0053C15.0587 9.63327 15.4247 9.33927 15.8327 9.12327C16.2527 8.90727 16.6847 8.79927 17.1287 8.79927C17.3327 8.79927 17.5247 8.81727 17.7047 8.85326C17.8967 8.88926 18.0467 8.93127 18.1547 8.97927L17.6687 10.9953C17.5247 10.9353 17.3627 10.8873 17.1827 10.8513C17.0147 10.8033 16.8467 10.7793 16.6787 10.7793C16.3547 10.7793 16.0427 10.8453 15.7427 10.9773C15.4547 11.0973 15.1967 11.2713 14.9687 11.4993C14.7527 11.7153 14.5787 11.9733 14.4467 12.2733C14.3147 12.5613 14.2487 12.8793 14.2487 13.2273V18.4473H12.3767ZM22.9571 18.6273C22.0331 18.6273 21.2051 18.4173 20.4731 17.9973C19.7531 17.5653 19.1831 16.9833 18.7631 16.2513C18.3431 15.5073 18.1331 14.6613 18.1331 13.7133C18.1331 12.7653 18.3431 11.9253 18.7631 11.1933C19.1831 10.4493 19.7531 9.86727 20.4731 9.44727C21.2051 9.01527 22.0331 8.79927 22.9571 8.79927C23.8691 8.79927 24.6851 9.01527 25.4051 9.44727C26.1371 9.86727 26.7131 10.4493 27.1331 11.1933C27.5531 11.9253 27.7631 12.7653 27.7631 13.7133C27.7631 14.6613 27.5531 15.5073 27.1331 16.2513C26.7131 16.9833 26.1371 17.5653 25.4051 17.9973C24.6851 18.4173 23.8691 18.6273 22.9571 18.6273ZM22.9571 16.9353C23.5211 16.9353 24.0251 16.7973 24.4691 16.5213C24.9131 16.2333 25.2611 15.8493 25.5131 15.3693C25.7651 14.8773 25.8851 14.3253 25.8731 13.7133C25.8851 13.0893 25.7651 12.5373 25.5131 12.0573C25.2611 11.5653 24.9131 11.1813 24.4691 10.9053C24.0251 10.6293 23.5211 10.4913 22.9571 10.4913C22.3931 10.4913 21.8831 10.6353 21.4271 10.9233C20.9831 11.1993 20.6351 11.5833 20.3831 12.0753C20.1311 12.5553 20.0111 13.1013 20.0231 13.7133C20.0111 14.3253 20.1311 14.8773 20.3831 15.3693C20.6351 15.8493 20.9831 16.2333 21.4271 16.5213C21.8831 16.7973 22.3931 16.9353 22.9571 16.9353ZM33.2023 18.6273C32.3383 18.6273 31.5643 18.4173 30.8803 17.9973C30.2083 17.5653 29.6743 16.9833 29.2783 16.2513C28.8823 15.5073 28.6843 14.6613 28.6843 13.7133C28.6843 12.7653 28.8763 11.9253 29.2603 11.1933C29.6563 10.4493 30.1903 9.86727 30.8623 9.44727C31.5343 9.01527 32.2963 8.79927 33.1483 8.79927C33.6163 8.79927 34.0663 8.87727 34.4983 9.03327C34.9423 9.17727 35.3383 9.38127 35.6863 9.64527C36.0343 9.89727 36.3043 10.1793 36.4963 10.4913C36.7003 10.7913 36.8023 11.0973 36.8023 11.4093L36.2623 11.4453V5.12727H38.1163V18.4473H36.2623V16.1973H36.6223C36.6223 16.4853 36.5263 16.7733 36.3343 17.0613C36.1423 17.3373 35.8843 17.5953 35.5603 17.8353C35.2483 18.0753 34.8823 18.2673 34.4623 18.4113C34.0543 18.5553 33.6343 18.6273 33.2023 18.6273ZM33.4543 17.0253C34.0183 17.0253 34.5163 16.8813 34.9483 16.5933C35.3803 16.3053 35.7163 15.9153 35.9563 15.4233C36.2083 14.9193 36.3343 14.3493 36.3343 13.7133C36.3343 13.0773 36.2083 12.5133 35.9563 12.0213C35.7163 11.5173 35.3803 11.1213 34.9483 10.8333C34.5163 10.5453 34.0183 10.4013 33.4543 10.4013C32.8903 10.4013 32.3923 10.5453 31.9603 10.8333C31.5283 11.1213 31.1863 11.5173 30.9343 12.0213C30.6943 12.5133 30.5743 13.0773 30.5743 13.7133C30.5743 14.3493 30.6943 14.9193 30.9343 15.4233C31.1863 15.9153 31.5283 16.3053 31.9603 16.5933C32.3923 16.8813 32.8903 17.0253 33.4543 17.0253ZM43.7386 18.6273C43.0666 18.6273 42.4786 18.4713 41.9746 18.1593C41.4826 17.8473 41.0986 17.4093 40.8226 16.8453C40.5586 16.2813 40.4266 15.6093 40.4266 14.8293V8.99726H42.2806V14.3253C42.2806 14.8773 42.3646 15.3573 42.5326 15.7653C42.7126 16.1613 42.9646 16.4673 43.2886 16.6833C43.6246 16.8993 44.0266 17.0073 44.4946 17.0073C44.8426 17.0073 45.1606 16.9533 45.4486 16.8453C45.7366 16.7253 45.9826 16.5633 46.1866 16.3593C46.4026 16.1553 46.5706 15.9093 46.6906 15.6213C46.8106 15.3333 46.8706 15.0213 46.8706 14.6853V8.99726H48.7246V18.4473H46.8706V16.4673L47.1946 16.2513C47.0506 16.6953 46.8046 17.0973 46.4566 17.4573C46.1206 17.8173 45.7186 18.1053 45.2506 18.3213C44.7826 18.5253 44.2786 18.6273 43.7386 18.6273ZM54.816 18.6273C53.94 18.6273 53.154 18.4113 52.458 17.9793C51.774 17.5473 51.228 16.9593 50.82 16.2153C50.424 15.4713 50.226 14.6373 50.226 13.7133C50.226 12.7893 50.424 11.9553 50.82 11.2113C51.228 10.4673 51.774 9.87927 52.458 9.44727C53.154 9.01527 53.94 8.79927 54.816 8.79927C55.656 8.79927 56.418 8.97327 57.102 9.32127C57.798 9.65727 58.326 10.1193 58.686 10.7073L57.66 11.9673C57.468 11.6913 57.222 11.4393 56.922 11.2113C56.622 10.9833 56.304 10.8033 55.968 10.6713C55.632 10.5393 55.308 10.4733 54.996 10.4733C54.42 10.4733 53.904 10.6173 53.448 10.9053C53.004 11.1813 52.65 11.5653 52.386 12.0573C52.122 12.5493 51.99 13.1013 51.99 13.7133C51.99 14.3253 52.128 14.8773 52.404 15.3693C52.68 15.8493 53.046 16.2333 53.502 16.5213C53.958 16.8093 54.462 16.9533 55.014 16.9533C55.338 16.9533 55.65 16.8993 55.95 16.7913C56.262 16.6833 56.562 16.5213 56.85 16.3053C57.138 16.0893 57.408 15.8253 57.66 15.5133L58.686 16.7733C58.302 17.3133 57.75 17.7573 57.03 18.1053C56.322 18.4533 55.584 18.6273 54.816 18.6273ZM61.0817 18.4473V6.58526H62.9357V18.4473H61.0817ZM59.1197 10.7973V8.99726H65.1317V10.7973H59.1197ZM74.7607 18.6273C73.8967 18.6273 73.1227 18.4173 72.4387 17.9973C71.7667 17.5653 71.2327 16.9833 70.8367 16.2513C70.4407 15.5073 70.2427 14.6613 70.2427 13.7133C70.2427 12.7653 70.4347 11.9253 70.8187 11.1933C71.2147 10.4493 71.7487 9.86727 72.4207 9.44727C73.0927 9.01527 73.8547 8.79927 74.7067 8.79927C75.1747 8.79927 75.6247 8.87727 76.0567 9.03327C76.5007 9.17727 76.8967 9.38127 77.2447 9.64527C77.5927 9.89727 77.8627 10.1793 78.0547 10.4913C78.2587 10.7913 78.3607 11.0973 78.3607 11.4093L77.8207 11.4453V5.12727H79.6747V18.4473H77.8207V16.1973H78.1807C78.1807 16.4853 78.0847 16.7733 77.8927 17.0613C77.7007 17.3373 77.4427 17.5953 77.1187 17.8353C76.8067 18.0753 76.4407 18.2673 76.0207 18.4113C75.6127 18.5553 75.1927 18.6273 74.7607 18.6273ZM75.0127 17.0253C75.5767 17.0253 76.0747 16.8813 76.5067 16.5933C76.9387 16.3053 77.2747 15.9153 77.5147 15.4233C77.7667 14.9193 77.8927 14.3493 77.8927 13.7133C77.8927 13.0773 77.7667 12.5133 77.5147 12.0213C77.2747 11.5173 76.9387 11.1213 76.5067 10.8333C76.0747 10.5453 75.5767 10.4013 75.0127 10.4013C74.4487 10.4013 73.9507 10.5453 73.5187 10.8333C73.0867 11.1213 72.7447 11.5173 72.4927 12.0213C72.2527 12.5133 72.1327 13.0773 72.1327 13.7133C72.1327 14.3493 72.2527 14.9193 72.4927 15.4233C72.7447 15.9153 73.0867 16.3053 73.5187 16.5933C73.9507 16.8813 74.4487 17.0253 75.0127 17.0253ZM86.1138 18.6273C85.1418 18.6273 84.2778 18.4233 83.5218 18.0153C82.7778 17.5953 82.1898 17.0253 81.7578 16.3053C81.3378 15.5853 81.1278 14.7573 81.1278 13.8213C81.1278 13.0773 81.2478 12.3993 81.4878 11.7873C81.7278 11.1753 82.0578 10.6473 82.4778 10.2033C82.9098 9.74727 83.4198 9.39927 84.0078 9.15927C84.6078 8.90727 85.2558 8.78127 85.9518 8.78127C86.5638 8.78127 87.1338 8.90127 87.6618 9.14127C88.1898 9.36927 88.6458 9.68727 89.0298 10.0953C89.4258 10.5033 89.7258 10.9893 89.9298 11.5533C90.1458 12.1053 90.2478 12.7113 90.2358 13.3713L90.2178 14.1633H82.4958L82.0818 12.6873H88.6158L88.3458 12.9933V12.5613C88.3098 12.1653 88.1778 11.8113 87.9498 11.4993C87.7218 11.1873 87.4338 10.9413 87.0858 10.7613C86.7378 10.5813 86.3598 10.4913 85.9518 10.4913C85.3038 10.4913 84.7578 10.6173 84.3138 10.8693C83.8698 11.1093 83.5338 11.4693 83.3058 11.9493C83.0778 12.4173 82.9638 12.9993 82.9638 13.6953C82.9638 14.3553 83.1018 14.9313 83.3778 15.4233C83.6538 15.9033 84.0438 16.2753 84.5478 16.5393C85.0518 16.8033 85.6338 16.9353 86.2938 16.9353C86.7618 16.9353 87.1938 16.8573 87.5898 16.7013C87.9978 16.5453 88.4358 16.2633 88.9038 15.8553L89.8398 17.1693C89.5518 17.4573 89.1978 17.7093 88.7778 17.9253C88.3698 18.1413 87.9318 18.3153 87.4638 18.4473C87.0078 18.5673 86.5578 18.6273 86.1138 18.6273ZM94.8776 18.6273C94.0856 18.6273 93.3716 18.4893 92.7356 18.2133C92.0996 17.9373 91.5716 17.5293 91.1516 16.9893L92.4116 15.9093C92.7716 16.3293 93.1616 16.6353 93.5816 16.8273C94.0136 17.0073 94.4996 17.0973 95.0396 17.0973C95.2556 17.0973 95.4536 17.0733 95.6336 17.0253C95.8256 16.9653 95.9876 16.8813 96.1196 16.7733C96.2636 16.6653 96.3716 16.5393 96.4436 16.3953C96.5156 16.2393 96.5516 16.0713 96.5516 15.8913C96.5516 15.5793 96.4376 15.3273 96.2096 15.1353C96.0896 15.0513 95.8976 14.9613 95.6336 14.8653C95.3816 14.7573 95.0516 14.6493 94.6436 14.5413C93.9476 14.3613 93.3776 14.1573 92.9336 13.9293C92.4896 13.7013 92.1476 13.4433 91.9076 13.1553C91.7276 12.9273 91.5956 12.6813 91.5116 12.4173C91.4276 12.1413 91.3856 11.8413 91.3856 11.5173C91.3856 11.1213 91.4696 10.7613 91.6376 10.4373C91.8176 10.1013 92.0576 9.81327 92.3576 9.57327C92.6696 9.32127 93.0296 9.12927 93.4376 8.99726C93.8576 8.86527 94.3016 8.79927 94.7696 8.79927C95.2136 8.79927 95.6516 8.85927 96.0836 8.97927C96.5276 9.09927 96.9356 9.27327 97.3076 9.50127C97.6796 9.72927 97.9916 9.99927 98.2436 10.3113L97.1816 11.4813C96.9536 11.2533 96.7016 11.0553 96.4256 10.8873C96.1616 10.7073 95.8916 10.5693 95.6156 10.4733C95.3396 10.3773 95.0876 10.3293 94.8596 10.3293C94.6076 10.3293 94.3796 10.3533 94.1756 10.4013C93.9716 10.4493 93.7976 10.5213 93.6536 10.6173C93.5216 10.7133 93.4196 10.8333 93.3476 10.9773C93.2756 11.1213 93.2396 11.2833 93.2396 11.4633C93.2516 11.6193 93.2876 11.7693 93.3476 11.9133C93.4196 12.0453 93.5156 12.1593 93.6356 12.2553C93.7676 12.3513 93.9656 12.4533 94.2296 12.5613C94.4936 12.6693 94.8296 12.7713 95.2376 12.8673C95.8376 13.0233 96.3296 13.1973 96.7136 13.3893C97.1096 13.5693 97.4216 13.7793 97.6496 14.0193C97.8896 14.2473 98.0576 14.5113 98.1536 14.8113C98.2496 15.1113 98.2976 15.4473 98.2976 15.8193C98.2976 16.3593 98.1416 16.8453 97.8296 17.2773C97.5296 17.6973 97.1216 18.0273 96.6056 18.2673C96.0896 18.5073 95.5136 18.6273 94.8776 18.6273ZM100.124 18.4473V8.99726H101.978V18.4473H100.124ZM101.024 6.90927C100.628 6.90927 100.322 6.80726 100.106 6.60326C99.8898 6.39927 99.7818 6.11127 99.7818 5.73927C99.7818 5.39127 99.8898 5.10927 100.106 4.89327C100.334 4.67727 100.64 4.56927 101.024 4.56927C101.42 4.56927 101.726 4.67127 101.942 4.87527C102.158 5.07926 102.266 5.36726 102.266 5.73927C102.266 6.08726 102.152 6.36926 101.924 6.58526C101.708 6.80127 101.408 6.90927 101.024 6.90927ZM108.535 22.5873C107.863 22.5873 107.191 22.4793 106.519 22.2633C105.859 22.0593 105.325 21.7893 104.917 21.4533L105.601 20.0133C105.841 20.1933 106.123 20.3493 106.447 20.4813C106.771 20.6253 107.113 20.7333 107.473 20.8053C107.833 20.8893 108.187 20.9313 108.535 20.9313C109.195 20.9313 109.747 20.8233 110.191 20.6073C110.635 20.3913 110.971 20.0733 111.199 19.6533C111.427 19.2333 111.541 18.7113 111.541 18.0873V16.2693L111.739 16.3953C111.679 16.7673 111.481 17.1273 111.145 17.4753C110.821 17.8113 110.413 18.0873 109.921 18.3033C109.429 18.5193 108.925 18.6273 108.409 18.6273C107.509 18.6273 106.705 18.4173 105.997 17.9973C105.301 17.5653 104.749 16.9833 104.341 16.2513C103.933 15.5073 103.729 14.6613 103.729 13.7133C103.729 12.7653 103.927 11.9253 104.323 11.1933C104.731 10.4493 105.283 9.86727 105.979 9.44727C106.687 9.01527 107.479 8.79927 108.355 8.79927C108.715 8.79927 109.063 8.84727 109.399 8.94327C109.735 9.02727 110.047 9.15327 110.335 9.32127C110.623 9.47727 110.881 9.65127 111.109 9.84327C111.337 10.0353 111.523 10.2393 111.667 10.4553C111.811 10.6713 111.901 10.8753 111.937 11.0673L111.541 11.2113V8.99726H113.395V17.8713C113.395 18.6273 113.281 19.2933 113.053 19.8693C112.837 20.4573 112.519 20.9493 112.099 21.3453C111.679 21.7533 111.169 22.0593 110.569 22.2633C109.969 22.4793 109.291 22.5873 108.535 22.5873ZM108.607 16.9173C109.195 16.9173 109.717 16.7793 110.173 16.5033C110.629 16.2273 110.983 15.8493 111.235 15.3693C111.487 14.8893 111.613 14.3373 111.613 13.7133C111.613 13.0893 111.481 12.5373 111.217 12.0573C110.965 11.5653 110.611 11.1813 110.155 10.9053C109.711 10.6293 109.195 10.4913 108.607 10.4913C108.031 10.4913 107.515 10.6353 107.059 10.9233C106.615 11.1993 106.261 11.5833 105.997 12.0753C105.745 12.5553 105.619 13.1013 105.619 13.7133C105.619 14.3253 105.745 14.8773 105.997 15.3693C106.261 15.8493 106.615 16.2273 107.059 16.5033C107.515 16.7793 108.031 16.9173 108.607 16.9173ZM115.471 18.4473V8.99726H117.325V10.9413L117.001 11.1573C117.121 10.7373 117.355 10.3533 117.703 10.0053C118.051 9.64527 118.465 9.35727 118.945 9.14127C119.425 8.91327 119.917 8.79927 120.421 8.79927C121.141 8.79927 121.741 8.94327 122.221 9.23127C122.701 9.50727 123.061 9.93327 123.301 10.5093C123.541 11.0853 123.661 11.8113 123.661 12.6873V18.4473H121.807V12.8133C121.807 12.2733 121.735 11.8293 121.591 11.4813C121.447 11.1213 121.225 10.8633 120.925 10.7073C120.625 10.5393 120.253 10.4673 119.809 10.4913C119.449 10.4913 119.119 10.5513 118.819 10.6713C118.519 10.7793 118.255 10.9353 118.027 11.1393C117.811 11.3433 117.637 11.5833 117.505 11.8593C117.385 12.1233 117.325 12.4113 117.325 12.7233V18.4473H116.407C116.251 18.4473 116.095 18.4473 115.939 18.4473C115.783 18.4473 115.627 18.4473 115.471 18.4473ZM130.063 18.6273C129.091 18.6273 128.227 18.4233 127.471 18.0153C126.727 17.5953 126.139 17.0253 125.707 16.3053C125.287 15.5853 125.077 14.7573 125.077 13.8213C125.077 13.0773 125.197 12.3993 125.437 11.7873C125.677 11.1753 126.007 10.6473 126.427 10.2033C126.859 9.74727 127.369 9.39927 127.957 9.15927C128.557 8.90727 129.205 8.78127 129.901 8.78127C130.513 8.78127 131.083 8.90127 131.611 9.14127C132.139 9.36927 132.595 9.68727 132.979 10.0953C133.375 10.5033 133.675 10.9893 133.879 11.5533C134.095 12.1053 134.197 12.7113 134.185 13.3713L134.167 14.1633H126.445L126.031 12.6873H132.565L132.295 12.9933V12.5613C132.259 12.1653 132.127 11.8113 131.899 11.4993C131.671 11.1873 131.383 10.9413 131.035 10.7613C130.687 10.5813 130.309 10.4913 129.901 10.4913C129.253 10.4913 128.707 10.6173 128.263 10.8693C127.819 11.1093 127.483 11.4693 127.255 11.9493C127.027 12.4173 126.913 12.9993 126.913 13.6953C126.913 14.3553 127.051 14.9313 127.327 15.4233C127.603 15.9033 127.993 16.2753 128.497 16.5393C129.001 16.8033 129.583 16.9353 130.243 16.9353C130.711 16.9353 131.143 16.8573 131.539 16.7013C131.947 16.5453 132.385 16.2633 132.853 15.8553L133.789 17.1693C133.501 17.4573 133.147 17.7093 132.727 17.9253C132.319 18.1413 131.881 18.3153 131.413 18.4473C130.957 18.5673 130.507 18.6273 130.063 18.6273ZM139.619 18.6273C138.755 18.6273 137.981 18.4173 137.297 17.9973C136.625 17.5653 136.091 16.9833 135.695 16.2513C135.299 15.5073 135.101 14.6613 135.101 13.7133C135.101 12.7653 135.293 11.9253 135.677 11.1933C136.073 10.4493 136.607 9.86727 137.279 9.44727C137.951 9.01527 138.713 8.79927 139.565 8.79927C140.033 8.79927 140.483 8.87727 140.915 9.03327C141.359 9.17727 141.755 9.38127 142.103 9.64527C142.451 9.89727 142.721 10.1793 142.913 10.4913C143.117 10.7913 143.219 11.0973 143.219 11.4093L142.679 11.4453V5.12727H144.533V18.4473H142.679V16.1973H143.039C143.039 16.4853 142.943 16.7733 142.751 17.0613C142.559 17.3373 142.301 17.5953 141.977 17.8353C141.665 18.0753 141.299 18.2673 140.879 18.4113C140.471 18.5553 140.051 18.6273 139.619 18.6273ZM139.871 17.0253C140.435 17.0253 140.933 16.8813 141.365 16.5933C141.797 16.3053 142.133 15.9153 142.373 15.4233C142.625 14.9193 142.751 14.3493 142.751 13.7133C142.751 13.0773 142.625 12.5133 142.373 12.0213C142.133 11.5173 141.797 11.1213 141.365 10.8333C140.933 10.5453 140.435 10.4013 139.871 10.4013C139.307 10.4013 138.809 10.5453 138.377 10.8333C137.945 11.1213 137.603 11.5173 137.351 12.0213C137.111 12.5133 136.991 13.0773 136.991 13.7133C136.991 14.3493 137.111 14.9193 137.351 15.4233C137.603 15.9153 137.945 16.3053 138.377 16.5933C138.809 16.8813 139.307 17.0253 139.871 17.0253ZM156.052 18.6273C155.644 18.6273 155.236 18.5613 154.828 18.4293C154.432 18.2973 154.066 18.1233 153.73 17.9073C153.406 17.6793 153.13 17.4333 152.902 17.1693C152.686 16.8933 152.542 16.6173 152.47 16.3413L152.938 16.0893V18.3933H151.084V5.12727H152.938V11.1573L152.65 10.9953C152.71 10.7193 152.842 10.4553 153.046 10.2033C153.25 9.93927 153.508 9.70527 153.82 9.50127C154.144 9.28527 154.492 9.11726 154.864 8.99726C155.236 8.86527 155.614 8.79927 155.998 8.79927C156.85 8.79927 157.606 9.00927 158.266 9.42926C158.926 9.84927 159.448 10.4313 159.832 11.1753C160.216 11.9073 160.408 12.7473 160.408 13.6953C160.408 14.6433 160.216 15.4893 159.832 16.2333C159.46 16.9773 158.944 17.5653 158.284 17.9973C157.624 18.4173 156.88 18.6273 156.052 18.6273ZM155.746 16.9353C156.298 16.9353 156.79 16.7973 157.222 16.5213C157.654 16.2333 157.996 15.8493 158.248 15.3693C158.5 14.8773 158.626 14.3193 158.626 13.6953C158.626 13.0833 158.5 12.5373 158.248 12.0573C158.008 11.5653 157.672 11.1813 157.24 10.9053C156.808 10.6293 156.31 10.4913 155.746 10.4913C155.182 10.4913 154.684 10.6293 154.252 10.9053C153.82 11.1813 153.478 11.5653 153.226 12.0573C152.974 12.5373 152.848 13.0833 152.848 13.6953C152.848 14.3193 152.974 14.8773 153.226 15.3693C153.478 15.8493 153.82 16.2333 154.252 16.5213C154.684 16.7973 155.182 16.9353 155.746 16.9353ZM163.131 22.5873L165.039 18.1773L165.057 19.6533L160.341 8.99726H162.501L165.453 15.9453C165.513 16.0653 165.585 16.2513 165.669 16.5033C165.753 16.7433 165.825 16.9833 165.885 17.2233L165.417 17.3313C165.513 17.0793 165.603 16.8273 165.687 16.5753C165.783 16.3233 165.873 16.0713 165.957 15.8193L168.423 8.99726H170.619L166.731 18.4473L165.129 22.5873H163.131ZM176.761 18.6273C176.365 18.6273 176.059 18.5133 175.843 18.2853C175.627 18.0453 175.519 17.7093 175.519 17.2773C175.519 16.8813 175.633 16.5573 175.861 16.3053C176.089 16.0533 176.389 15.9273 176.761 15.9273C177.157 15.9273 177.463 16.0473 177.679 16.2873C177.895 16.5153 178.003 16.8453 178.003 17.2773C178.003 17.6733 177.889 17.9973 177.661 18.2493C177.433 18.5013 177.133 18.6273 176.761 18.6273ZM176.761 11.5173C176.365 11.5173 176.059 11.4033 175.843 11.1753C175.627 10.9353 175.519 10.5993 175.519 10.1673C175.519 9.77127 175.633 9.44727 175.861 9.19527C176.089 8.94327 176.389 8.81727 176.761 8.81727C177.157 8.81727 177.463 8.93727 177.679 9.17726C177.895 9.40527 178.003 9.73527 178.003 10.1673C178.003 10.5633 177.889 10.8873 177.661 11.1393C177.433 11.3913 177.133 11.5173 176.761 11.5173Z" fill="#AEBBE8"/>
<path d="M215.618 16.9902L210.013 22.5378C209.622 22.9262 208.981 22.9262 208.591 22.5378L203.293 17.2676C202.902 16.8792 202.902 16.2413 203.293 15.8529L207.587 11.609C208.702 10.4995 210.543 10.4995 211.658 11.609L215.618 15.5478C216.008 15.9639 216.008 16.5741 215.618 16.9902Z" fill="#D4145A"/>
<path d="M233.436 16.1303L227.831 21.678C227.441 22.0663 226.8 22.0663 226.409 21.678L221.111 16.4077C220.721 16.0194 220.721 15.3814 221.111 14.9931L225.405 10.7491C226.521 9.63961 228.333 9.63961 229.476 10.7491L233.436 14.688C233.826 15.104 233.826 15.742 233.436 16.1303Z" fill="#009245"/>
<path d="M215.51 12.5384L214.879 13.166L225.664 23.8947L226.295 23.267L215.51 12.5384Z" fill="#D4145A"/>
<path d="M216.523 0.000222487L205.127 11.3369L205.758 11.9646L217.154 0.62786L216.523 0.000222487Z" fill="#009245"/>
<path d="M223.676 8.6965L222.923 9.44543L219.995 12.3579C219.326 13.0237 218.239 13.0237 217.541 12.3579L213.889 8.6965C213.219 8.03079 213.219 6.949 213.889 6.28328L217.569 2.62185C218.239 1.95613 219.326 1.95613 220.023 2.62185L223.676 6.28328C224.345 6.949 224.345 8.03079 223.676 8.6965Z" fill="#662D91"/>
<path d="M221.78 5.3679H221.752C221.557 5.58981 219.103 8.4191 218.741 8.86291C218.378 8.4191 216.259 5.61754 215.897 5.146H215.841C215.813 5.25695 214.809 7.30957 214.028 8.86291L214.753 9.5841C215.227 8.50231 215.869 7.08767 215.98 6.78255C216.51 7.476 217.876 9.27898 218.546 10.1389H218.573C219.075 9.5841 221.139 7.22636 221.529 6.81029C221.641 7.00445 222.338 8.36362 222.895 9.47315L223.62 8.72422C222.895 7.36505 222.003 5.75624 221.78 5.3679Z" fill="white"/>
<path d="M237.897 16.4908V5.97803H241.244C242.275 5.97803 243.084 6.19993 243.669 6.64374C244.255 7.03208 244.59 7.69779 244.562 8.39125C244.562 8.94601 244.394 9.50077 244.06 9.94458C243.697 10.3884 243.223 10.7213 242.666 10.8877V10.9154C243.335 10.9709 243.948 11.2483 244.394 11.7198C244.841 12.1914 245.064 12.8294 245.036 13.4673C245.064 14.3272 244.645 15.1316 243.976 15.6586C243.195 16.2411 242.247 16.5185 241.271 16.4908H237.897ZM239.626 7.39267V10.3884H240.77C241.271 10.4161 241.801 10.2774 242.192 9.97232C242.554 9.6672 242.749 9.22339 242.721 8.75184C242.721 7.86422 242.108 7.39267 240.909 7.39267H239.626ZM239.626 11.7753V15.1039H241.132C241.662 15.1316 242.22 14.9652 242.638 14.6601C243 14.355 243.195 13.8834 243.168 13.4119C243.168 12.3301 242.415 11.7753 240.881 11.7753H239.626Z" fill="#0070C5"/>
<path d="M258.086 16.491H256.385V12.4135C256.385 11.6368 256.273 11.0543 256.05 10.6937C255.799 10.3331 255.353 10.139 254.907 10.1667C254.433 10.1667 253.987 10.4163 253.763 10.8324C253.457 11.304 253.289 11.8587 253.289 12.4412V16.491H251.561V12.2748C251.561 10.8879 251.059 10.1944 250.083 10.1944C249.609 10.1944 249.19 10.4441 248.967 10.8324C248.661 11.304 248.493 11.8865 248.521 12.469V16.5187H246.82V8.97395H248.521V10.1667H248.549C249.023 9.30681 249.943 8.77978 250.919 8.80752C251.421 8.80752 251.895 8.94621 252.286 9.2236C252.676 9.50098 252.955 9.88931 253.094 10.3331C253.652 9.30681 254.488 8.77979 255.604 8.77979C257.277 8.77979 258.086 9.8061 258.086 11.831V16.491Z" fill="#0070C5"/>
<path d="M261.906 15.4089H261.878V16.4907H260.177V5.36768H261.878V10.3051H261.906C262.407 9.36197 263.383 8.77947 264.471 8.80721C265.335 8.77947 266.172 9.14007 266.702 9.80578C267.231 10.4715 267.51 11.3869 267.51 12.4964C267.51 13.7446 267.204 14.7709 266.59 15.5198C266.005 16.2688 265.084 16.6848 264.108 16.6571C263.216 16.7126 262.352 16.2133 261.906 15.4089ZM261.878 12.4132V13.3285C261.878 13.8278 262.045 14.3271 262.407 14.7154C263.105 15.4644 264.304 15.4921 265.029 14.7709C265.112 14.7154 265.168 14.6322 265.224 14.549C265.586 14.0497 265.781 13.384 265.781 12.4964C265.809 11.8861 265.614 11.2759 265.252 10.7766C264.917 10.3605 264.415 10.1386 263.885 10.1386C263.328 10.1109 262.798 10.3328 262.407 10.7766C262.045 11.2482 261.85 11.8307 261.878 12.4132Z" fill="#0070C5"/>
<path d="M268.793 16.2691V14.688C269.406 15.1596 270.131 15.4092 270.912 15.4092C271.944 15.4092 272.474 15.1041 272.474 14.4938C272.474 14.3274 272.418 14.1887 272.334 14.05C272.223 13.9113 272.111 13.8281 271.972 13.7172C271.804 13.6062 271.637 13.523 271.442 13.4675L270.773 13.2179C270.494 13.1069 270.215 12.9682 269.936 12.8296C269.713 12.7186 269.49 12.5522 269.323 12.358C269.155 12.1916 269.044 11.9974 268.96 11.7755C268.877 11.5259 268.821 11.2762 268.849 10.9988C268.849 10.666 268.932 10.3331 269.1 10.028C269.267 9.75062 269.518 9.50098 269.797 9.33455C270.104 9.14038 270.438 9.00169 270.773 8.91848C271.135 8.83526 271.526 8.77979 271.916 8.77979C272.557 8.77979 273.199 8.89074 273.784 9.11264V10.6105C273.254 10.2499 272.613 10.0557 271.944 10.0557C271.749 10.0557 271.554 10.0835 271.358 10.1112C271.191 10.139 271.052 10.2222 270.912 10.3054C270.801 10.3886 270.717 10.4718 270.633 10.5828C270.578 10.6937 270.522 10.8047 270.522 10.9434C270.522 11.0821 270.55 11.2207 270.633 11.3594C270.717 11.4704 270.829 11.5813 270.94 11.6646C271.079 11.7478 271.247 11.831 271.414 11.8865C271.609 11.9697 271.832 12.0251 272.055 12.1084C272.362 12.2193 272.641 12.358 272.92 12.5244C273.171 12.6354 273.394 12.8018 273.589 12.996C273.756 13.1624 273.924 13.3566 274.007 13.6062C274.119 13.8559 274.175 14.1332 274.147 14.4106C274.147 14.7712 274.063 15.1041 273.868 15.4092C273.701 15.6866 273.45 15.9362 273.171 16.1027C272.864 16.2968 272.529 16.4355 272.167 16.5187C271.777 16.6019 271.358 16.6574 270.94 16.6574C270.215 16.6852 269.462 16.5465 268.793 16.2691Z" fill="#0070C5"/>
<path d="M279.11 16.657C277.939 16.657 277.019 16.2964 276.321 15.603C275.596 14.854 275.234 13.8555 275.29 12.8292C275.29 11.5809 275.652 10.5824 276.377 9.86118C277.102 9.13999 278.078 8.80713 279.305 8.80713C280.476 8.80713 281.396 9.13999 282.066 9.83344C282.735 10.5269 283.042 11.47 283.042 12.6905C283.042 13.8832 282.679 14.854 281.982 15.5752C281.285 16.2964 280.309 16.657 279.11 16.657ZM279.194 10.1663C278.58 10.1386 277.995 10.3882 277.604 10.8598C277.186 11.4145 276.991 12.0802 277.019 12.7737C276.991 13.4394 277.186 14.1051 277.604 14.6321C277.995 15.076 278.58 15.3256 279.166 15.2979C279.751 15.3256 280.337 15.076 280.727 14.6321C281.09 14.1883 281.257 13.5504 281.257 12.7459C281.257 11.9415 281.09 11.2758 280.727 10.832C280.365 10.3882 279.779 10.1386 279.194 10.1663Z" fill="#0070C5"/>
<path d="M288.813 6.75464C288.562 6.61595 288.311 6.56048 288.032 6.56048C287.196 6.56048 286.778 7.03202 286.778 7.94738V8.9737H288.534V10.3051H286.778V16.463H285.077V10.3329H283.794V9.00143H285.077V7.78096C285.049 7.05976 285.328 6.39405 285.857 5.89476C286.387 5.42321 287.084 5.17357 287.809 5.20131C288.144 5.20131 288.478 5.22904 288.813 5.34V6.75464Z" fill="#0070C5"/>
<path d="M294 16.4074C293.581 16.6015 293.135 16.6847 292.689 16.657C291.239 16.657 290.486 15.9636 290.486 14.5489V10.3327H289.231V9.00128H290.486V7.25378L292.187 6.78223V9.00128H294V10.3327H292.187V14.0774C292.159 14.4102 292.243 14.7431 292.438 15.0205C292.661 15.2146 292.94 15.3256 293.247 15.2978C293.526 15.2978 293.777 15.2146 294 15.0482V16.4074Z" fill="#0070C5"/>
</svg>
