<svg width="8" height="5" viewBox="0 0 8 5" fill="none" xmlns="http://www.w3.org/2000/svg">
<path d="M3.99999 4.98334C3.9111 4.98334 3.8251 4.96667 3.74199 4.93334C3.65844 4.9 3.58888 4.85556 3.53333 4.8L0.466658 1.73334C0.344436 1.61111 0.283325 1.45556 0.283325 1.26667C0.283325 1.07778 0.344436 0.922224 0.466658 0.800002C0.588881 0.67778 0.744436 0.616669 0.933325 0.616669C1.12221 0.616669 1.27777 0.67778 1.39999 0.800002L3.99999 3.4L6.59999 0.800002C6.72221 0.67778 6.87777 0.616669 7.06666 0.616669C7.25555 0.616669 7.4111 0.67778 7.53332 0.800002C7.65555 0.922224 7.71666 1.07778 7.71666 1.26667C7.71666 1.45556 7.65555 1.61111 7.53332 1.73334L4.46666 4.8C4.39999 4.86667 4.32777 4.91378 4.24999 4.94134C4.17221 4.96934 4.08888 4.98334 3.99999 4.98334Z" fill="#544949"/>
</svg>
