<svg width="21" height="16" viewBox="0 0 21 16" fill="none" xmlns="http://www.w3.org/2000/svg">
<path d="M2.5 16C1.95 16 1.479 15.804 1.087 15.412C0.695002 15.02 0.499335 14.5493 0.500002 14V2C0.500002 1.45 0.696002 0.979002 1.088 0.587002C1.48 0.195002 1.95067 -0.000664969 2.5 1.69779e-06H18.5C19.05 1.69779e-06 19.521 0.196001 19.913 0.588001C20.305 0.980001 20.5007 1.45067 20.5 2V14C20.5 14.55 20.304 15.021 19.912 15.413C19.52 15.805 19.0493 16.0007 18.5 16H2.5ZM18.5 4L11.025 8.675C10.9417 8.725 10.854 8.76267 10.762 8.788C10.67 8.81334 10.5827 8.82567 10.5 8.825C10.4167 8.825 10.329 8.81267 10.237 8.788C10.145 8.76334 10.0577 8.72567 9.975 8.675L2.5 4V14H18.5V4ZM10.5 7L18.5 2H2.5L10.5 7ZM2.5 4.25V2.775V2.8V2.788V4.25Z" fill="#4D4D61"/>
</svg>
