<svg width="22" height="18" viewBox="0 0 22 18" fill="none" xmlns="http://www.w3.org/2000/svg">
<path d="M10.9999 0C16.3919 0 20.8779 3.88 21.8189 9C20.8789 14.12 16.3919 18 10.9999 18C5.60791 18 1.12191 14.12 0.180908 9C1.12091 3.88 5.60791 0 10.9999 0ZM10.9999 16C13.0394 15.9996 15.0183 15.3068 16.6128 14.0352C18.2072 12.7635 19.3228 10.9883 19.7769 9C19.3211 7.0133 18.2048 5.24 16.6105 3.97003C15.0162 2.70005 13.0382 2.00853 10.9999 2.00853C8.96161 2.00853 6.9836 2.70005 5.38928 3.97003C3.79497 5.24 2.67868 7.0133 2.22291 9C2.677 10.9883 3.79258 12.7635 5.38705 14.0352C6.98152 15.3068 8.96044 15.9996 10.9999 16ZM10.9999 13.5C9.80643 13.5 8.66184 13.0259 7.81793 12.182C6.97401 11.3381 6.49991 10.1935 6.49991 9C6.49991 7.80653 6.97401 6.66193 7.81793 5.81802C8.66184 4.97411 9.80643 4.5 10.9999 4.5C12.1934 4.5 13.338 4.97411 14.1819 5.81802C15.0258 6.66193 15.4999 7.80653 15.4999 9C15.4999 10.1935 15.0258 11.3381 14.1819 12.182C13.338 13.0259 12.1934 13.5 10.9999 13.5ZM10.9999 11.5C11.6629 11.5 12.2988 11.2366 12.7677 10.7678C13.2365 10.2989 13.4999 9.66304 13.4999 9C13.4999 8.33696 13.2365 7.70107 12.7677 7.23223C12.2988 6.76339 11.6629 6.5 10.9999 6.5C10.3369 6.5 9.70098 6.76339 9.23214 7.23223C8.7633 7.70107 8.49991 8.33696 8.49991 9C8.49991 9.66304 8.7633 10.2989 9.23214 10.7678C9.70098 11.2366 10.3369 11.5 10.9999 11.5Z" fill="#B0B0B0"/>
</svg>
