<svg width="24" height="24" viewBox="0 0 24 24" fill="none" xmlns="http://www.w3.org/2000/svg">
<path d="M22.0828 11.3953C21.2589 9.65953 20.2785 8.24391 19.1414 7.14844L17.9489 8.34094C18.9213 9.27023 19.7684 10.4859 20.5008 12C18.5508 16.0359 15.7828 17.9531 12 17.9531C10.8645 17.9531 9.81869 17.7783 8.86244 17.4286L7.57033 18.7207C8.89845 19.334 10.375 19.6406 12 19.6406C16.5047 19.6406 19.8656 17.2945 22.0828 12.6023C22.172 12.4136 22.2182 12.2075 22.2182 11.9988C22.2182 11.7901 22.172 11.584 22.0828 11.3953ZM20.5929 3.88031L19.5938 2.88C19.5763 2.86257 19.5557 2.84874 19.5329 2.8393C19.5101 2.82987 19.4857 2.82501 19.4611 2.82501C19.4365 2.82501 19.4121 2.82987 19.3893 2.8393C19.3665 2.84874 19.3459 2.86257 19.3285 2.88L16.7651 5.44219C15.3518 4.72031 13.7635 4.35937 12 4.35937C7.49533 4.35937 4.13439 6.70547 1.9172 11.3977C1.82808 11.5864 1.78186 11.7925 1.78186 12.0012C1.78186 12.2099 1.82808 12.416 1.9172 12.6047C2.80298 14.4703 3.86939 15.9657 5.11642 17.0909L2.63626 19.5703C2.60113 19.6055 2.58139 19.6531 2.58139 19.7029C2.58139 19.7526 2.60113 19.8002 2.63626 19.8354L3.63681 20.8359C3.67197 20.8711 3.71964 20.8908 3.76935 20.8908C3.81906 20.8908 3.86673 20.8711 3.90189 20.8359L20.5929 4.14562C20.6103 4.12821 20.6242 4.10753 20.6336 4.08477C20.643 4.06201 20.6479 4.03761 20.6479 4.01297C20.6479 3.98833 20.643 3.96393 20.6336 3.94117C20.6242 3.9184 20.6103 3.89773 20.5929 3.88031ZM3.49923 12C5.45158 7.96406 8.21954 6.04687 12 6.04687C13.2783 6.04687 14.4406 6.26625 15.495 6.71227L13.8474 8.35992C13.067 7.94359 12.1736 7.78907 11.2988 7.91917C10.424 8.04927 9.61413 8.45709 8.98874 9.08248C8.36336 9.70787 7.95553 10.5177 7.82543 11.3925C7.69533 12.2673 7.84985 13.1608 8.26618 13.9411L6.31103 15.8962C5.22892 14.9412 4.29611 13.6472 3.49923 12ZM9.28126 12C9.28167 11.5867 9.37957 11.1794 9.56699 10.811C9.75442 10.4427 10.0261 10.1237 10.3599 9.8801C10.6938 9.63647 11.0804 9.47504 11.4883 9.4089C11.8963 9.34276 12.3141 9.37378 12.7078 9.49945L9.40572 12.8016C9.32295 12.5424 9.28096 12.272 9.28126 12Z" fill="#9C9C9C"/>
<path d="M11.9062 14.625C11.8251 14.625 11.7452 14.6213 11.666 14.614L10.428 15.852C11.1726 16.1371 11.9839 16.2005 12.7637 16.0344C13.5435 15.8683 14.2586 15.4799 14.8224 14.9161C15.3862 14.3523 15.7746 13.6373 15.9406 12.8575C16.1067 12.0776 16.0433 11.2664 15.7582 10.5218L14.5202 11.7598C14.5275 11.839 14.5312 11.9189 14.5312 12C14.5314 12.3448 14.4637 12.6862 14.3318 13.0048C14.2 13.3233 14.0066 13.6128 13.7628 13.8566C13.519 14.1004 13.2296 14.2937 12.911 14.4256C12.5924 14.5574 12.251 14.6252 11.9062 14.625Z" fill="#9C9C9C"/>
</svg>
