<svg width="121" height="156" viewBox="0 0 121 156" fill="none" xmlns="http://www.w3.org/2000/svg">
<path fill-rule="evenodd" clip-rule="evenodd" d="M60.6518 43.0107C57.8068 43.0107 55.6434 45.1944 55.6434 47.7157C55.6434 50.237 57.8068 52.4206 60.6518 52.4206C63.4969 52.4206 65.6603 50.237 65.6603 47.7157C65.6603 45.1944 63.4969 43.0107 60.6518 43.0107ZM52.0009 47.7157C52.0009 43.0284 55.9529 39.3682 60.6518 39.3682C65.3507 39.3682 69.3028 43.0284 69.3028 47.7157C69.3028 52.403 65.3507 56.0631 60.6518 56.0631C55.9529 56.0631 52.0009 52.403 52.0009 47.7157Z" fill="#CC5D45"/>
<path fill-rule="evenodd" clip-rule="evenodd" d="M60.8034 59.0985C61.8092 59.0985 62.6246 59.9139 62.6246 60.9198V96.1308C62.6246 97.1367 61.8092 97.9521 60.8034 97.9521C59.7975 97.9521 58.9821 97.1367 58.9821 96.1308V60.9198C58.9821 59.9139 59.7975 59.0985 60.8034 59.0985Z" fill="#CC5D45"/>
<path fill-rule="evenodd" clip-rule="evenodd" d="M60.5106 26.3221C61.3488 26.3221 62.0284 27.0016 62.0284 27.8398V36.4272C62.0284 37.2654 61.3488 37.9449 60.5106 37.9449C59.6724 37.9449 58.9929 37.2654 58.9929 36.4272V27.8398C58.9929 27.0016 59.6724 26.3221 60.5106 26.3221Z" fill="#CC5D45"/>
<path fill-rule="evenodd" clip-rule="evenodd" d="M60.5106 19.0345C58.4982 19.0345 56.8669 20.6659 56.8669 22.6782C56.8669 24.6906 58.4982 26.322 60.5106 26.322C62.523 26.322 64.1544 24.6906 64.1544 22.6782C64.1544 20.6659 62.523 19.0345 60.5106 19.0345ZM53.8314 22.6782C53.8314 18.9894 56.8218 15.9991 60.5106 15.9991C64.1994 15.9991 67.1898 18.9894 67.1898 22.6782C67.1898 26.3671 64.1994 29.3574 60.5106 29.3574C56.8218 29.3574 53.8314 26.3671 53.8314 22.6782Z" fill="#CC5D45"/>
<path fill-rule="evenodd" clip-rule="evenodd" d="M60.5106 3.24652C59.5006 3.24652 58.6819 4.06522 58.6819 5.07514C58.6819 6.08505 59.5006 6.90375 60.5106 6.90375C61.5205 6.90375 62.3392 6.08505 62.3392 5.07514C62.3392 4.06522 61.5205 3.24652 60.5106 3.24652ZM56.2536 5.07514C56.2536 2.72408 58.1595 0.818176 60.5106 0.818176C62.8616 0.818176 64.7675 2.72408 64.7675 5.07514C64.7675 7.42619 62.8616 9.3321 60.5106 9.3321C58.1595 9.3321 56.2536 7.42619 56.2536 5.07514Z" fill="#F78C62"/>
<path fill-rule="evenodd" clip-rule="evenodd" d="M60.5104 6.92639C61.181 6.92639 61.7246 7.47 61.7246 8.14057V13.3246C61.7246 13.9951 61.181 14.5387 60.5104 14.5387C59.8399 14.5387 59.2963 13.9951 59.2963 13.3246V8.14057C59.2963 7.47 59.8399 6.92639 60.5104 6.92639Z" fill="#F78C62"/>
<path fill-rule="evenodd" clip-rule="evenodd" d="M48.0467 8.40811C47.0368 8.40811 46.2181 9.22681 46.2181 10.2367C46.2181 11.2466 47.0368 12.0653 48.0467 12.0653C49.0566 12.0653 49.8753 11.2466 49.8753 10.2367C49.8753 9.22681 49.0566 8.40811 48.0467 8.40811ZM43.7897 10.2367C43.7897 7.88567 45.6956 5.97977 48.0467 5.97977C50.3978 5.97977 52.3037 7.88567 52.3037 10.2367C52.3037 12.5878 50.3978 14.4937 48.0467 14.4937C45.6956 14.4937 43.7897 12.5878 43.7897 10.2367Z" fill="#F78C62"/>
<path fill-rule="evenodd" clip-rule="evenodd" d="M49.3515 11.5419C49.8257 11.0677 50.5945 11.0677 51.0686 11.5419L54.7425 15.2158C55.2167 15.69 55.2167 16.4587 54.7425 16.9329C54.2684 17.4071 53.4996 17.4071 53.0254 16.9329L49.3515 13.259C48.8774 12.7848 48.8774 12.0161 49.3515 11.5419Z" fill="#F78C62"/>
<path fill-rule="evenodd" clip-rule="evenodd" d="M72.9523 8.40811C71.9424 8.40811 71.1237 9.22681 71.1237 10.2367C71.1237 11.2466 71.9424 12.0653 72.9523 12.0653C73.9623 12.0653 74.7809 11.2466 74.7809 10.2367C74.7809 9.22681 73.9623 8.40811 72.9523 8.40811ZM68.6954 10.2367C68.6954 7.88567 70.6013 5.97977 72.9523 5.97977C75.3034 5.97977 77.2093 7.88567 77.2093 10.2367C77.2093 12.5878 75.3034 14.4937 72.9523 14.4937C70.6013 14.4937 68.6954 12.5878 68.6954 10.2367Z" fill="#F78C62"/>
<path fill-rule="evenodd" clip-rule="evenodd" d="M71.6471 11.5419C72.1213 12.0161 72.1213 12.7848 71.6471 13.259L67.9732 16.9329C67.4991 17.4071 66.7303 17.4071 66.2561 16.9329C65.782 16.4587 65.782 15.69 66.2561 15.2158L69.93 11.5419C70.4042 11.0677 71.173 11.0677 71.6471 11.5419Z" fill="#F78C62"/>
<path fill-rule="evenodd" clip-rule="evenodd" d="M41.8197 37.1092C42.2396 36.3838 43.1681 36.136 43.8935 36.5559L51.3315 40.8609C52.0569 41.2808 52.3046 42.2093 51.8848 42.9348C51.4649 43.6602 50.5364 43.9079 49.8109 43.488L42.373 39.1831C41.6475 38.7632 41.3998 37.8347 41.8197 37.1092Z" fill="#CC5D45"/>
<path fill-rule="evenodd" clip-rule="evenodd" d="M38.6709 31.6563C36.6586 31.6563 35.0272 33.2877 35.0272 35.3001C35.0272 37.3125 36.6586 38.9438 38.6709 38.9438C40.6833 38.9438 42.3147 37.3125 42.3147 35.3001C42.3147 33.2877 40.6833 31.6563 38.6709 31.6563ZM31.9918 35.3001C31.9918 31.6113 34.9821 28.6209 38.6709 28.6209C42.3598 28.6209 45.3501 31.6113 45.3501 35.3001C45.3501 38.9889 42.3598 41.9793 38.6709 41.9793C34.9821 41.9793 31.9918 38.9889 31.9918 35.3001Z" fill="#CC5D45"/>
<path fill-rule="evenodd" clip-rule="evenodd" d="M23.4119 24.6587C22.402 24.6587 21.5833 25.4774 21.5833 26.4873C21.5833 27.4972 22.402 28.3159 23.4119 28.3159C24.4218 28.3159 25.2405 27.4972 25.2405 26.4873C25.2405 25.4774 24.4218 24.6587 23.4119 24.6587ZM19.155 26.4873C19.155 24.1363 21.0609 22.2303 23.4119 22.2303C25.763 22.2303 27.6689 24.1363 27.6689 26.4873C27.6689 28.8384 25.763 30.7443 23.4119 30.7443C21.0609 30.7443 19.155 28.8384 19.155 26.4873Z" fill="#F78C62"/>
<path fill-rule="evenodd" clip-rule="evenodd" d="M25.0202 27.4126C25.3557 26.832 26.0983 26.6334 26.6789 26.9689L31.1642 29.5609C31.7448 29.8964 31.9435 30.6391 31.608 31.2196C31.2725 31.8002 30.5298 31.9989 29.9492 31.6634L25.4639 29.0714C24.8833 28.7359 24.6847 27.9932 25.0202 27.4126Z" fill="#F78C62"/>
<path fill-rule="evenodd" clip-rule="evenodd" d="M21.6537 38.0244C20.6438 38.0244 19.8251 38.8431 19.8251 39.853C19.8251 40.8629 20.6438 41.6816 21.6537 41.6816C22.6636 41.6816 23.4823 40.8629 23.4823 39.853C23.4823 38.8431 22.6636 38.0244 21.6537 38.0244ZM17.3967 39.853C17.3967 37.502 19.3026 35.5961 21.6537 35.5961C24.0047 35.5961 25.9107 37.502 25.9107 39.853C25.9107 42.2041 24.0047 44.11 21.6537 44.11C19.3026 44.11 17.3967 42.2041 17.3967 39.853Z" fill="#F78C62"/>
<path fill-rule="evenodd" clip-rule="evenodd" d="M30.805 37.3964C30.9792 38.044 30.5955 38.7102 29.948 38.8844L24.9217 40.2367C24.2742 40.411 23.608 40.0273 23.4338 39.3797C23.2596 38.7322 23.6433 38.066 24.2908 37.8918L29.317 36.5394C29.9646 36.3652 30.6307 36.7489 30.805 37.3964Z" fill="#F78C62"/>
<path fill-rule="evenodd" clip-rule="evenodd" d="M34.0952 16.4544C33.0853 16.4544 32.2666 17.2731 32.2666 18.2831C32.2666 19.293 33.0853 20.1117 34.0952 20.1117C35.1051 20.1117 35.9238 19.293 35.9238 18.2831C35.9238 17.2731 35.1051 16.4544 34.0952 16.4544ZM29.8383 18.2831C29.8383 15.932 31.7442 14.0261 34.0952 14.0261C36.4463 14.0261 38.3522 15.932 38.3522 18.2831C38.3522 20.6341 36.4463 22.54 34.0952 22.54C31.7442 22.54 29.8383 20.6341 29.8383 18.2831Z" fill="#F78C62"/>
<path fill-rule="evenodd" clip-rule="evenodd" d="M34.5686 20.0632C35.2162 19.889 35.8823 20.2727 36.0566 20.9202L37.4089 25.9464C37.5831 26.594 37.1994 27.2601 36.5519 27.4344C35.9044 27.6086 35.2382 27.2249 35.064 26.5774L33.7116 21.5511C33.5374 20.9036 33.9211 20.2374 34.5686 20.0632Z" fill="#F78C62"/>
<path fill-rule="evenodd" clip-rule="evenodd" d="M51.8848 52.8644C52.3046 53.5898 52.0569 54.5183 51.3315 54.9382L43.8935 59.2432C43.1681 59.6631 42.2396 59.4154 41.8197 58.6899C41.3998 57.9645 41.6475 57.036 42.373 56.6161L49.8109 52.3111C50.5364 51.8912 51.4649 52.1389 51.8848 52.8644Z" fill="#CC5D45"/>
<path fill-rule="evenodd" clip-rule="evenodd" d="M38.6709 56.8778C36.6586 56.8778 35.0272 58.5092 35.0272 60.5216C35.0272 62.534 36.6586 64.1653 38.6709 64.1653C40.6833 64.1653 42.3147 62.534 42.3147 60.5216C42.3147 58.5092 40.6833 56.8778 38.6709 56.8778ZM31.9918 60.5216C31.9918 56.8327 34.9821 53.8424 38.6709 53.8424C42.3598 53.8424 45.3501 56.8327 45.3501 60.5216C45.3501 64.2104 42.3598 67.2008 38.6709 67.2008C34.9821 67.2008 31.9918 64.2104 31.9918 60.5216Z" fill="#CC5D45"/>
<path fill-rule="evenodd" clip-rule="evenodd" d="M23.4119 67.4833C22.402 67.4833 21.5833 68.302 21.5833 69.3119C21.5833 70.3218 22.402 71.1405 23.4119 71.1405C24.4218 71.1405 25.2405 70.3218 25.2405 69.3119C25.2405 68.302 24.4218 67.4833 23.4119 67.4833ZM19.155 69.3119C19.155 66.9608 21.0609 65.0549 23.4119 65.0549C25.763 65.0549 27.6689 66.9608 27.6689 69.3119C27.6689 71.6629 25.763 73.5688 23.4119 73.5688C21.0609 73.5688 19.155 71.6629 19.155 69.3119Z" fill="#F78C62"/>
<path fill-rule="evenodd" clip-rule="evenodd" d="M31.608 64.5798C31.9435 65.1604 31.7448 65.903 31.1642 66.2385L26.6789 68.8305C26.0983 69.1661 25.3557 68.9674 25.0202 68.3868C24.6847 67.8062 24.8833 67.0635 25.4639 66.728L29.9492 64.136C30.5298 63.8005 31.2725 63.9992 31.608 64.5798Z" fill="#F78C62"/>
<path fill-rule="evenodd" clip-rule="evenodd" d="M34.095 75.6875C33.0851 75.6875 32.2664 76.5062 32.2664 77.5161C32.2664 78.526 33.0851 79.3447 34.095 79.3447C35.105 79.3447 35.9236 78.526 35.9236 77.5161C35.9236 76.5062 35.105 75.6875 34.095 75.6875ZM29.8381 77.5161C29.8381 75.165 31.744 73.2591 34.095 73.2591C36.4461 73.2591 38.352 75.165 38.352 77.5161C38.352 79.8671 36.4461 81.773 34.095 81.773C31.744 81.773 29.8381 79.8671 29.8381 77.5161Z" fill="#F78C62"/>
<path fill-rule="evenodd" clip-rule="evenodd" d="M36.5468 68.3634C37.1951 68.5349 37.5815 69.1995 37.41 69.8477L36.0802 74.874C35.9087 75.5222 35.2441 75.9087 34.5959 75.7372C33.9476 75.5657 33.5611 74.9011 33.7326 74.2529L35.0625 69.2266C35.234 68.5784 35.8985 68.1919 36.5468 68.3634Z" fill="#F78C62"/>
<path fill-rule="evenodd" clip-rule="evenodd" d="M21.6537 54.1175C20.6438 54.1175 19.8251 54.9362 19.8251 55.9461C19.8251 56.956 20.6438 57.7747 21.6537 57.7747C22.6636 57.7747 23.4823 56.956 23.4823 55.9461C23.4823 54.9362 22.6636 54.1175 21.6537 54.1175ZM17.3967 55.9461C17.3967 53.595 19.3026 51.6891 21.6537 51.6891C24.0047 51.6891 25.9107 53.595 25.9107 55.9461C25.9107 58.2971 24.0047 60.203 21.6537 60.203C19.3026 60.203 17.3967 58.2971 17.3967 55.9461Z" fill="#F78C62"/>
<path fill-rule="evenodd" clip-rule="evenodd" d="M23.4338 56.4196C23.608 55.772 24.2742 55.3883 24.9217 55.5625L29.948 56.9149C30.5955 57.0891 30.9792 57.7553 30.805 58.4028C30.6307 59.0504 29.9646 59.4341 29.317 59.2598L24.2908 57.9075C23.6433 57.7333 23.2596 57.0671 23.4338 56.4196Z" fill="#F78C62"/>
<path fill-rule="evenodd" clip-rule="evenodd" d="M69.1151 52.8644C69.5349 52.1389 70.4634 51.8912 71.1889 52.3111L78.6268 56.6161C79.3523 57.036 79.6 57.9645 79.1801 58.6899C78.7602 59.4154 77.8317 59.6631 77.1063 59.2432L69.6683 54.9382C68.9429 54.5183 68.6952 53.5898 69.1151 52.8644Z" fill="#CC5D45"/>
<path fill-rule="evenodd" clip-rule="evenodd" d="M82.3521 56.8778C80.3397 56.8778 78.7083 58.5092 78.7083 60.5216C78.7083 62.534 80.3397 64.1653 82.3521 64.1653C84.3645 64.1653 85.9959 62.534 85.9959 60.5216C85.9959 58.5092 84.3645 56.8778 82.3521 56.8778ZM75.6729 60.5216C75.6729 56.8327 78.6633 53.8424 82.3521 53.8424C86.0409 53.8424 89.0313 56.8327 89.0313 60.5216C89.0313 64.2104 86.0409 67.2008 82.3521 67.2008C78.6633 67.2008 75.6729 64.2104 75.6729 60.5216Z" fill="#CC5D45"/>
<path fill-rule="evenodd" clip-rule="evenodd" d="M97.588 67.4833C96.5781 67.4833 95.7594 68.302 95.7594 69.3119C95.7594 70.3218 96.5781 71.1405 97.588 71.1405C98.5979 71.1405 99.4166 70.3218 99.4166 69.3119C99.4166 68.302 98.5979 67.4833 97.588 67.4833ZM93.3311 69.3119C93.3311 66.9608 95.237 65.0549 97.588 65.0549C99.9391 65.0549 101.845 66.9608 101.845 69.3119C101.845 71.6629 99.9391 73.5688 97.588 73.5688C95.237 73.5688 93.3311 71.6629 93.3311 69.3119Z" fill="#F78C62"/>
<path fill-rule="evenodd" clip-rule="evenodd" d="M89.3907 64.582C89.7249 64.0007 90.4672 63.8004 91.0485 64.1347L95.5563 66.7267C96.1376 67.0609 96.3379 67.8031 96.0037 68.3845C95.6694 68.9658 94.9272 69.1661 94.3459 68.8318L89.838 66.2398C89.2567 65.9055 89.0564 65.1633 89.3907 64.582Z" fill="#F78C62"/>
<path fill-rule="evenodd" clip-rule="evenodd" d="M99.3464 54.1175C98.3365 54.1175 97.5178 54.9362 97.5178 55.9461C97.5178 56.956 98.3365 57.7747 99.3464 57.7747C100.356 57.7747 101.175 56.956 101.175 55.9461C101.175 54.9362 100.356 54.1175 99.3464 54.1175ZM95.0895 55.9461C95.0895 53.595 96.9954 51.6891 99.3464 51.6891C101.697 51.6891 103.603 53.595 103.603 55.9461C103.603 58.2971 101.697 60.203 99.3464 60.203C96.9954 60.203 95.0895 58.2971 95.0895 55.9461Z" fill="#F78C62"/>
<path fill-rule="evenodd" clip-rule="evenodd" d="M97.5661 56.4196C97.7404 57.0671 97.3567 57.7333 96.7091 57.9075L91.6829 59.2598C91.0354 59.4341 90.3692 59.0504 90.195 58.4028C90.0207 57.7553 90.4044 57.0891 91.052 56.9149L96.0782 55.5625C96.7257 55.3883 97.3919 55.772 97.5661 56.4196Z" fill="#F78C62"/>
<path fill-rule="evenodd" clip-rule="evenodd" d="M86.9049 75.6875C85.8949 75.6875 85.0762 76.5062 85.0762 77.5161C85.0762 78.526 85.8949 79.3447 86.9049 79.3447C87.9148 79.3447 88.7335 78.526 88.7335 77.5161C88.7335 76.5062 87.9148 75.6875 86.9049 75.6875ZM82.6479 77.5161C82.6479 75.165 84.5538 73.2591 86.9049 73.2591C89.2559 73.2591 91.1618 75.165 91.1618 77.5161C91.1618 79.8671 89.2559 81.773 86.9049 81.773C84.5538 81.773 82.6479 79.8671 82.6479 77.5161Z" fill="#F78C62"/>
<path fill-rule="evenodd" clip-rule="evenodd" d="M84.4478 68.3647C85.0954 68.1905 85.7616 68.5742 85.9358 69.2217L87.2881 74.248C87.4624 74.8955 87.0787 75.5617 86.4311 75.7359C85.7836 75.9101 85.1174 75.5264 84.9432 74.8789L83.5908 69.8527C83.4166 69.2051 83.8003 68.5389 84.4478 68.3647Z" fill="#F78C62"/>
<path fill-rule="evenodd" clip-rule="evenodd" d="M79.1803 37.1092C79.6002 37.8347 79.3525 38.7632 78.627 39.1831L71.1891 43.488C70.4636 43.9079 69.5351 43.6602 69.1152 42.9348C68.6953 42.2093 68.9431 41.2808 69.6685 40.8609L77.1064 36.5559C77.8319 36.136 78.7604 36.3838 79.1803 37.1092Z" fill="#CC5D45"/>
<path fill-rule="evenodd" clip-rule="evenodd" d="M82.3521 31.6563C80.3397 31.6563 78.7083 33.2877 78.7083 35.3001C78.7083 37.3125 80.3397 38.9438 82.3521 38.9438C84.3645 38.9438 85.9959 37.3125 85.9959 35.3001C85.9959 33.2877 84.3645 31.6563 82.3521 31.6563ZM75.6729 35.3001C75.6729 31.6113 78.6633 28.6209 82.3521 28.6209C86.0409 28.6209 89.0313 31.6113 89.0313 35.3001C89.0313 38.9889 86.0409 41.9793 82.3521 41.9793C78.6633 41.9793 75.6729 38.9889 75.6729 35.3001Z" fill="#CC5D45"/>
<path fill-rule="evenodd" clip-rule="evenodd" d="M97.588 24.6586C96.5781 24.6586 95.7594 25.4773 95.7594 26.4872C95.7594 27.4972 96.5781 28.3159 97.588 28.3159C98.5979 28.3159 99.4166 27.4972 99.4166 26.4872C99.4166 25.4773 98.5979 24.6586 97.588 24.6586ZM93.3311 26.4872C93.3311 24.1362 95.237 22.2303 97.588 22.2303C99.9391 22.2303 101.845 24.1362 101.845 26.4872C101.845 28.8383 99.9391 30.7442 97.588 30.7442C95.237 30.7442 93.3311 28.8383 93.3311 26.4872Z" fill="#F78C62"/>
<path fill-rule="evenodd" clip-rule="evenodd" d="M96.0037 27.4147C96.3379 27.996 96.1376 28.7382 95.5563 29.0725L91.0485 31.6645C90.4672 31.9987 89.7249 31.7984 89.3907 31.2171C89.0564 30.6358 89.2567 29.8936 89.838 29.5593L94.3459 26.9673C94.9272 26.6331 95.6694 26.8333 96.0037 27.4147Z" fill="#F78C62"/>
<path fill-rule="evenodd" clip-rule="evenodd" d="M86.9047 16.4544C85.8948 16.4544 85.0761 17.2731 85.0761 18.2831C85.0761 19.293 85.8948 20.1117 86.9047 20.1117C87.9146 20.1117 88.7333 19.293 88.7333 18.2831C88.7333 17.2731 87.9146 16.4544 86.9047 16.4544ZM82.6477 18.2831C82.6477 15.932 84.5536 14.0261 86.9047 14.0261C89.2557 14.0261 91.1616 15.932 91.1616 18.2831C91.1616 20.6341 89.2557 22.54 86.9047 22.54C84.5536 22.54 82.6477 20.6341 82.6477 18.2831Z" fill="#F78C62"/>
<path fill-rule="evenodd" clip-rule="evenodd" d="M86.4311 20.0632C87.0787 20.2374 87.4624 20.9036 87.2881 21.5511L85.9358 26.5774C85.7616 27.2249 85.0954 27.6086 84.4478 27.4344C83.8003 27.2601 83.4166 26.594 83.5908 25.9464L84.9432 20.9202C85.1174 20.2727 85.7836 19.889 86.4311 20.0632Z" fill="#F78C62"/>
<path fill-rule="evenodd" clip-rule="evenodd" d="M99.3464 38.0243C98.3365 38.0243 97.5178 38.843 97.5178 39.8529C97.5178 40.8629 98.3365 41.6816 99.3464 41.6816C100.356 41.6816 101.175 40.8629 101.175 39.8529C101.175 38.843 100.356 38.0243 99.3464 38.0243ZM95.0895 39.8529C95.0895 37.5019 96.9954 35.596 99.3464 35.596C101.697 35.596 103.603 37.5019 103.603 39.8529C103.603 42.204 101.697 44.1099 99.3464 44.1099C96.9954 44.1099 95.0895 42.204 95.0895 39.8529Z" fill="#F78C62"/>
<path fill-rule="evenodd" clip-rule="evenodd" d="M90.195 37.3963C90.3692 36.7488 91.0354 36.3651 91.6829 36.5393L96.7091 37.8917C97.3567 38.0659 97.7404 38.7321 97.5661 39.3796C97.3919 40.0271 96.7257 40.4108 96.0782 40.2366L91.052 38.8843C90.4044 38.71 90.0207 38.0439 90.195 37.3963Z" fill="#F78C62"/>
<path fill-rule="evenodd" clip-rule="evenodd" d="M76.2842 97.9521H44.4121V94.3096H76.2842V97.9521Z" fill="#CC5D45"/>
<path d="M17.9803 139.162C18.4001 138.674 19.0473 138.43 19.9218 138.43L20.6214 138.481C21.0179 138.538 21.3677 138.628 21.6709 138.753C22.5804 139.14 22.9244 139.799 22.7028 140.73C22.5162 141.594 22.1256 142.571 21.5309 143.661C21.2861 144.127 20.9887 144.644 20.6389 145.212C20.3707 145.644 20.0267 146.184 19.607 146.831L18.4876 148.535C18.0328 149.217 17.648 149.819 17.3332 150.342C16.447 151.751 15.7182 153.063 15.1469 154.279C14.8787 154.881 14.523 155.182 14.0799 155.182C13.6135 155.182 13.4211 154.96 13.5028 154.517C13.7943 152.847 14.2782 150.808 14.9545 148.399C15.6308 145.979 16.208 144.247 16.686 143.201C16.0331 144.326 14.4239 145.712 11.8586 147.36C10.576 148.189 9.35748 148.842 8.2031 149.319C6.86215 149.876 5.70194 150.154 4.72247 150.154C3.4748 150.154 2.41953 149.683 1.55666 148.74C0.518888 147.592 0 145.922 0 143.73C0 141.673 0.618002 139.623 1.854 137.577C2.9734 135.726 4.50092 134.01 6.43655 132.431C10.4011 129.216 14.1907 127.608 17.8054 127.608C19.2747 127.608 20.3707 127.909 21.0937 128.511C22.0265 129.261 22.4929 130.426 22.4929 132.005C22.4929 132.732 22.3122 133.249 21.9507 133.556C21.6709 133.771 21.2802 133.879 20.7788 133.879C20.534 133.879 20.2891 133.845 20.0442 133.777L19.0473 133.402L18.6625 133.3C18.371 133.232 18.062 133.198 17.7355 133.198C15.9864 133.198 14.1616 133.646 12.2609 134.544C10.5468 135.351 8.91438 136.447 7.36355 137.833C4.12195 140.742 2.50116 143.36 2.50116 145.689C2.50116 146.189 2.59444 146.598 2.78101 146.916C3.08418 147.394 3.60307 147.632 4.33767 147.632C5.04896 147.632 5.91766 147.445 6.94377 147.07C7.85328 146.74 8.85025 146.275 9.93467 145.672C11.882 144.604 13.5727 143.468 15.0069 142.264C15.5666 141.798 16.1438 141.236 16.7385 140.577L17.9803 139.162Z" fill="#CC5D45"/>
<path d="M24.8891 148.484C24.8891 147.053 25.3439 145.422 26.2534 143.593C27.1513 141.775 27.95 140.867 28.6496 140.867C29.5708 140.867 30.352 141.287 30.9934 142.128C31.5764 142.923 31.8679 143.821 31.8679 144.82C31.8679 145.513 31.1858 146.712 29.8215 148.416C28.4222 150.132 27.4136 150.99 26.7956 150.99C26.1893 150.99 25.6587 150.592 25.204 149.797C24.9941 149.41 24.8891 148.973 24.8891 148.484ZM28.5447 135.941C28.5447 133.76 29.7399 132.669 32.1303 132.669C33.2497 132.647 34.1184 133.101 34.7364 134.033C35.3077 134.885 35.4651 135.72 35.2086 136.538C34.7189 138.094 33.6053 138.873 31.8679 138.873C29.6524 138.873 28.5447 137.896 28.5447 135.941Z" fill="#CC5D45"/>
<path d="M38.0246 147.99C38.7009 147.854 39.5171 147.564 40.4733 147.121C41.2778 146.746 42.1874 146.263 43.2018 145.672L45.7554 144.07L47.7669 142.758C49.0262 141.918 50.029 141.741 50.7752 142.23C51.1834 142.469 51.5215 142.747 51.7897 143.065C52.1395 143.485 52.3144 143.906 52.3144 144.326C52.3144 144.633 52.2095 144.945 51.9996 145.263C51.5682 145.9 50.9793 146.934 50.233 148.365C49.8716 149.069 49.5742 149.672 49.341 150.172C49.0728 150.751 48.9212 151.154 48.8863 151.381C48.8513 151.631 48.7055 151.756 48.449 151.756C47.866 151.756 47.3004 151.433 46.7524 150.785C46.1694 150.069 45.8779 149.251 45.8779 148.331C45.8779 147.729 45.9712 147.093 46.1577 146.422C46.2277 146.161 46.3093 145.911 46.4026 145.672C46.4726 145.468 46.5483 145.298 46.63 145.161L44.7585 146.525C43.7673 147.24 42.8462 147.871 41.995 148.416C40.8872 149.132 39.9252 149.689 39.109 150.086C38.1179 150.575 37.3658 150.819 36.8527 150.819C36.0831 150.819 35.436 150.461 34.9113 149.745C34.4565 149.109 34.2291 148.445 34.2291 147.752C34.2291 146.74 34.4798 145.877 34.9812 145.161C36.567 142.821 38.147 140.952 39.7212 139.554C41.5635 137.896 43.2193 137.066 44.6885 137.066C45.3182 137.066 45.9129 137.31 46.4726 137.799C46.9506 138.219 47.2655 138.674 47.417 139.162C47.6503 139.969 47.5861 140.469 47.2247 140.662C47.108 140.719 46.9798 140.753 46.8399 140.764C46.7816 140.776 46.7174 140.787 46.6475 140.798L46.0878 140.85C45.9478 140.884 45.8021 140.935 45.6505 141.003C44.6127 141.514 43.3534 142.4 41.8725 143.661C41.0563 144.355 40.3333 145.042 39.7037 145.724C38.9924 146.519 38.4327 147.274 38.0246 147.99Z" fill="#CC5D45"/>
<path d="M70.5047 133.641C70.0382 133.823 69.5368 134.027 69.0005 134.254L67.8286 134.766C67.094 135.084 66.5809 135.243 66.2894 135.243C65.788 135.243 65.5373 134.998 65.5373 134.51C65.5373 134.226 65.6423 133.834 65.8522 133.334C66.2136 132.584 66.5459 132.022 66.8491 131.647C67.2689 131.136 67.9277 130.556 68.8256 129.909C69.77 129.272 71.1576 128.676 72.9883 128.119C74.7957 127.562 76.2474 127.284 77.3435 127.284C79.5123 127.284 81.343 128.051 82.8355 129.585C84.2231 131.005 84.9169 132.59 84.9169 134.339C84.9169 136.169 84.5263 137.782 83.745 139.179C83.0687 140.384 82.1243 141.401 80.9116 142.23C79.8971 142.934 78.7486 143.468 77.4659 143.832C76.3815 144.139 75.3496 144.292 74.3701 144.292C72.8892 144.292 71.9389 143.582 71.5191 142.162L71.3092 141.446C71.2509 141.185 71.2218 140.969 71.2218 140.798C71.2218 140.196 71.5191 139.929 72.1138 139.997C73.0466 140.088 73.9386 140.117 74.7899 140.083C75.9792 140.026 77.052 139.844 78.0081 139.537C79.1975 139.162 80.177 138.594 80.9465 137.833C81.8561 136.958 82.4741 135.828 82.8006 134.442C82.9405 133.692 82.1651 133.158 80.4743 132.84C78.1422 132.476 76.1075 132.419 74.3701 132.669C73.9037 133.578 73.4023 134.595 72.8659 135.72C72.3878 136.72 71.8864 137.805 71.3617 138.975C70.9069 139.986 70.4405 141.06 69.9624 142.196L68.7206 145.127C68.569 145.491 68.3242 145.979 67.986 146.593C67.7295 147.07 67.403 147.661 67.0065 148.365L65.275 151.381C65.0068 151.915 64.7444 152.182 64.4879 152.182C64.1264 152.182 64.0098 151.938 64.1381 151.45L64.6978 148.962C64.9193 148.019 65.0884 147.343 65.205 146.934L65.7472 145.315L66.9191 142.094C67.4671 140.639 68.0093 139.265 68.5457 137.969C69.222 136.367 69.875 134.925 70.5047 133.641Z" fill="#CC5D45"/>
<path d="M85.5991 144.633C87.4064 139.952 90.1933 134.101 93.9596 127.08C94.1811 126.659 94.356 126.335 94.4843 126.108C94.7175 125.722 94.939 125.398 95.1489 125.137C95.7086 124.455 96.2916 124.114 96.898 124.114C97.1545 124.114 97.4285 124.182 97.72 124.319C98.7228 124.853 99.2242 125.483 99.2242 126.21C99.2242 126.676 99.0085 127.29 98.5771 128.051C98.3206 128.54 97.7317 129.403 96.8105 130.641L93.9946 134.408C93.4349 135.169 92.9276 135.885 92.4729 136.555C91.9365 137.35 91.4526 138.106 91.0211 138.822C89.995 140.514 89.2313 142.048 88.7299 143.423C89.2663 142.843 90.0125 142.309 90.9687 141.821C92.1814 141.185 93.3532 140.867 94.4843 140.867C95.6037 140.867 96.5015 141.775 97.1778 143.593C97.7259 145.025 97.9999 146.456 97.9999 147.888C97.9999 149.001 97.6617 149.933 96.9854 150.683C96.2975 151.421 95.4521 151.791 94.4493 151.791C94.0062 151.791 93.6389 151.626 93.3474 151.296C93.1025 151.024 92.9801 150.768 92.9801 150.529C92.9684 150.007 92.9743 149.206 92.9976 148.126L93.0326 145.655C93.0092 143.86 92.7527 142.963 92.263 142.963C91.68 142.963 90.8054 143.519 89.6394 144.633C88.9981 145.246 88.4034 145.939 87.8553 146.712C87.214 147.621 86.6543 148.592 86.1762 149.626C85.9664 150.103 85.5466 150.092 84.9169 149.592C84.6837 149.399 84.5671 149.052 84.5671 148.553C84.5671 148.053 84.6895 147.388 84.9344 146.559C85.0277 146.263 85.1443 145.922 85.2842 145.536L85.5991 144.633Z" fill="#CC5D45"/>
<path d="M104.454 147.99C105.13 147.854 105.946 147.564 106.903 147.121C107.707 146.746 108.617 146.263 109.631 145.672L112.185 144.07L114.196 142.758C115.456 141.918 116.458 141.741 117.205 142.23C117.613 142.469 117.951 142.747 118.219 143.065C118.569 143.485 118.744 143.906 118.744 144.326C118.744 144.633 118.639 144.945 118.429 145.263C117.997 145.9 117.409 146.934 116.662 148.365C116.301 149.069 116.004 149.672 115.77 150.172C115.502 150.751 115.351 151.154 115.316 151.381C115.281 151.631 115.135 151.756 114.878 151.756C114.295 151.756 113.73 151.433 113.182 150.785C112.599 150.069 112.307 149.251 112.307 148.331C112.307 147.729 112.4 147.093 112.587 146.422C112.657 146.161 112.739 145.911 112.832 145.672C112.902 145.468 112.978 145.298 113.059 145.161L111.188 146.525C110.197 147.24 109.276 147.871 108.424 148.416C107.317 149.132 106.355 149.689 105.538 150.086C104.547 150.575 103.795 150.819 103.282 150.819C102.512 150.819 101.865 150.461 101.341 149.745C100.886 149.109 100.658 148.445 100.658 147.752C100.658 146.74 100.909 145.877 101.411 145.161C102.996 142.821 104.576 140.952 106.151 139.554C107.993 137.896 109.649 137.066 111.118 137.066C111.748 137.066 112.342 137.31 112.902 137.799C113.38 138.219 113.695 138.674 113.846 139.162C114.08 139.969 114.015 140.469 113.654 140.662C113.537 140.719 113.409 140.753 113.269 140.764C113.211 140.776 113.147 140.787 113.077 140.798L112.517 140.85C112.377 140.884 112.231 140.935 112.08 141.003C111.042 141.514 109.783 142.4 108.302 143.661C107.486 144.355 106.763 145.042 106.133 145.724C105.422 146.519 104.862 147.274 104.454 147.99ZM117.974 127.744C118.662 128.165 119.327 128.897 119.968 129.943C120.656 131.056 121 132.062 121 132.959C121 133.436 120.889 133.857 120.668 134.22C120.458 134.584 119.601 134.737 118.097 134.68C118.108 134.998 118.237 135.311 118.481 135.618C118.575 135.743 118.691 135.868 118.831 135.993L119.181 136.316C119.344 136.43 119.426 136.549 119.426 136.674C119.426 136.788 119.309 136.896 119.076 136.998C118.575 137.248 118.056 137.373 117.519 137.373C116.901 137.373 116.383 137.168 115.963 136.759C115.578 136.385 115.386 135.976 115.386 135.532C115.386 135.237 115.49 134.93 115.7 134.612C115.805 134.453 116.039 134.322 116.4 134.22L117.449 133.982C118.336 133.811 118.755 133.601 118.709 133.351C118.569 132.692 118.172 132.033 117.519 131.374C116.901 130.761 116.202 130.283 115.421 129.943C115.082 129.784 114.913 129.596 114.913 129.38C114.913 129.085 115.152 128.727 115.63 128.307C116.237 127.761 116.756 127.489 117.187 127.489C117.444 127.489 117.706 127.574 117.974 127.744Z" fill="#CC5D45"/>
</svg>
