<svg width="18" height="20" viewBox="0 0 18 20" fill="none" xmlns="http://www.w3.org/2000/svg">
<path d="M16 2.0002H11.82C11.6152 1.41564 11.2339 0.909159 10.7287 0.550821C10.2235 0.192483 9.61939 0 9 0C8.38061 0 7.77654 0.192483 7.27133 0.550821C6.76612 0.909159 6.38476 1.41564 6.18 2.0002H2C1.47005 2.00179 0.962265 2.21301 0.587535 2.58774C0.212805 2.96247 0.00158273 3.47026 0 4.0002L0 18.0002C0.00158273 18.5301 0.212805 19.0379 0.587535 19.4127C0.962265 19.7874 1.47005 19.9986 2 20.0002H7.141C6.95242 19.3469 6.95242 18.6535 7.141 18.0002H2V4.0002H16V13.0002H18V4.0002C17.9984 3.47026 17.7872 2.96247 17.4125 2.58774C17.0377 2.21301 16.5299 2.00179 16 2.0002ZM9 3.2502C8.80149 3.24889 8.61149 3.16945 8.47112 3.02908C8.33075 2.88872 8.25131 2.69871 8.25 2.5002C8.25 2.30129 8.32902 2.11052 8.46967 1.96987C8.61032 1.82922 8.80109 1.7502 9 1.7502C9.19891 1.7502 9.38968 1.82922 9.53033 1.96987C9.67098 2.11052 9.75 2.30129 9.75 2.5002C9.74869 2.69871 9.66925 2.88872 9.52888 3.02908C9.38851 3.16945 9.19851 3.24889 9 3.2502Z" fill="#9C9C9C"/>
</svg>
