<svg width="20" height="20" viewBox="0 0 20 20" fill="none" xmlns="http://www.w3.org/2000/svg">
<g clip-path="url(#clip0_165_1437)">
<path fill-rule="evenodd" clip-rule="evenodd" d="M13.1416 2.86842C12.9305 2.81174 12.7173 2.76433 12.5029 2.72624L12.7754 1.19212C13.034 1.23806 13.291 1.29522 13.5456 1.36358L13.1416 2.86842ZM14.0708 3.18372C13.9698 3.14196 13.868 3.10247 13.7657 3.06525L14.2982 1.60094C14.4216 1.64582 14.5442 1.69343 14.666 1.74378C14.7878 1.79412 14.9083 1.84701 15.0274 1.90238L14.3705 3.31526C14.2717 3.26934 14.1718 3.22548 14.0708 3.18372ZM11.8542 2.63975C11.6369 2.62029 11.4188 2.61023 11.2005 2.6096L11.205 1.05148C11.4681 1.05223 11.7311 1.06436 11.9932 1.08784L11.8542 2.63975ZM15.504 3.96686C15.3253 3.8424 15.1409 3.72548 14.9514 3.61653L15.7278 2.26568C15.9564 2.39706 16.1788 2.53804 16.3943 2.68813L15.504 3.96686ZM10.5467 2.63601C10.3296 2.6542 10.113 2.68179 9.89757 2.7188L9.63381 1.18316C9.89364 1.13853 10.1548 1.10526 10.4166 1.08333L10.5467 2.63601ZM16.5086 4.80386C16.3536 4.65021 16.1921 4.50332 16.0244 4.36363L17.0218 3.16656C17.224 3.33501 17.4188 3.51211 17.6056 3.69739L16.5086 4.80386ZM9.25803 2.85735C9.15269 2.88499 9.04777 2.91495 8.94333 2.94723C8.8389 2.97952 8.73537 3.014 8.63281 3.05063L8.10875 1.58328C8.23242 1.53911 8.35725 1.49753 8.48316 1.45861C8.60907 1.41969 8.73558 1.38357 8.8626 1.35024L9.25803 2.85735ZM17.3541 5.8012C17.2277 5.62285 17.0938 5.4504 16.953 5.28424L18.1414 4.27665C18.3113 4.47701 18.4728 4.68497 18.6252 4.90004L17.3541 5.8012ZM8.02665 3.29715C7.82788 3.38819 7.63352 3.48764 7.44406 3.59512L6.67526 2.23987C6.90373 2.11026 7.1381 1.99034 7.3778 1.88055L8.02665 3.29715ZM17.8686 6.63675C17.8174 6.54014 17.7643 6.44484 17.7092 6.35089L19.0534 5.5629C19.1198 5.67619 19.1838 5.7911 19.2455 5.90756L17.8686 6.63675ZM6.88937 3.9423C6.70956 4.06597 6.53517 4.19736 6.36672 4.33609L5.37619 3.13334C5.57932 2.96605 5.78958 2.80763 6.0064 2.65851L6.88937 3.9423ZM5.88003 4.77354C5.72447 4.92602 5.57529 5.08542 5.43296 5.25137L4.25022 4.23703C4.42185 4.03691 4.60175 3.84469 4.78933 3.66082L5.88003 4.77354ZM5.02884 5.76604C4.96535 5.85453 4.90366 5.94454 4.84383 6.03602C4.784 6.1275 4.72627 6.2201 4.67065 6.31373L3.33102 5.51803C3.39808 5.40512 3.46769 5.29348 3.53982 5.18318C3.61196 5.07289 3.68634 4.96436 3.7629 4.85767L5.02884 5.76604ZM4.36111 6.89026C4.26612 7.08717 4.17988 7.28774 4.10253 7.49137L2.64593 6.93813C2.7392 6.69257 2.8432 6.45071 2.95775 6.21326L4.36111 6.89026ZM3.89684 8.11259C3.83726 8.32253 3.78678 8.53496 3.74555 8.74926L2.21549 8.4549C2.2652 8.19649 2.32606 7.94035 2.3979 7.68721L3.89684 8.11259ZM3.64981 9.3966C3.62729 9.61327 3.61409 9.83119 3.61035 10.0498L2.05245 10.0231C2.05696 9.75953 2.07288 9.49674 2.10004 9.23548L3.64981 9.3966ZM3.62746 10.7039C3.63501 10.8126 3.64491 10.9212 3.6572 11.0299C3.66948 11.1385 3.68409 11.2466 3.70099 11.3542L2.16174 11.596C2.14136 11.4663 2.12375 11.3359 2.10894 11.2049C2.09413 11.074 2.08218 10.943 2.07308 10.812L3.62746 10.7039ZM3.8304 11.9957C3.88285 12.2079 3.94439 12.4174 4.01473 12.6235L2.54007 13.1267C2.45525 12.8781 2.38105 12.6255 2.31779 12.3695L3.8304 11.9957ZM4.25261 13.2331C4.34066 13.4328 4.43729 13.6286 4.54225 13.8199L3.17616 14.5693C3.04961 14.3386 2.93308 14.1025 2.82692 13.8617L4.25261 13.2331ZM4.88148 14.3795C5.00234 14.5608 5.13119 14.737 5.26776 14.9077L4.05102 15.881C3.88634 15.6751 3.73096 15.4626 3.58521 15.2441L4.88148 14.3795ZM5.69823 15.4006C5.77335 15.4794 5.8503 15.5568 5.92905 15.6326C6.0078 15.7084 6.08803 15.7824 6.16968 15.8544L5.13856 17.0226C5.04011 16.9357 4.94337 16.8465 4.84843 16.7551C4.75348 16.6637 4.6607 16.5704 4.57012 16.4753L5.69823 15.4006ZM6.67853 16.2659C6.85432 16.3958 7.03533 16.5179 7.22102 16.6318L6.40635 17.96C6.18244 17.8226 5.96416 17.6755 5.75217 17.5187L6.67853 16.2659ZM7.7931 16.9495C7.98828 17.0471 8.1876 17.1363 8.39049 17.2166L7.8165 18.6652C7.57187 18.5683 7.33153 18.4608 7.09618 18.3431L7.7931 16.9495ZM10.289 17.6965C10.3972 17.7093 10.5058 17.7198 10.6148 17.7279L10.4987 19.2817C10.3673 19.2719 10.2363 19.2592 10.1059 19.2438L10.289 17.6965ZM9.0087 17.4312C9.21739 17.4936 9.42905 17.5472 9.64312 17.5915L9.327 19.1173C9.06884 19.0638 8.81361 18.9992 8.56196 18.9239L9.0087 17.4312Z" fill="#662D91"/>
<path fill-rule="evenodd" clip-rule="evenodd" d="M11.3983 7.5415C11.7519 7.5415 12.0386 7.82816 12.0386 8.18177L12.0386 15.865C12.0386 16.2186 11.7519 16.5052 11.3983 16.5052C11.0447 16.5052 10.758 16.2186 10.758 15.865L10.758 8.18177C10.758 7.82816 11.0447 7.5415 11.3983 7.5415Z" fill="#4D4D61"/>
<path fill-rule="evenodd" clip-rule="evenodd" d="M15.0269 9.88952C15.0269 10.2431 14.7402 10.5298 14.3866 10.5298H10.1181C9.76453 10.5298 9.47788 10.2431 9.47788 9.88952C9.47788 9.53591 9.76453 9.24925 10.1181 9.24925H14.3866C14.7402 9.24925 15.0269 9.53591 15.0269 9.88952Z" fill="#4D4D61"/>
</g>
<defs>
<clipPath id="clip0_165_1437">
<rect width="20" height="20" fill="white"/>
</clipPath>
</defs>
</svg>
