<svg width="34" height="34" viewBox="0 0 34 34" fill="none" xmlns="http://www.w3.org/2000/svg">
<g clip-path="url(#clip0_2227_843)">
<path d="M20.1874 28.6875H28.6874C29.7377 28.6875 30.6302 28.4506 31.3713 28.0378L20.1874 21.3663V28.6875ZM33.8193 24.5491C33.9404 24.0088 34.0021 23.4366 34.0021 22.8432V20.187H26.5061L33.8172 24.5491H33.8193ZM0.185879 9.43447C0.0599742 9.99968 -0.00239177 10.5772 -5.89799e-05 11.1562V13.8125H7.52457L0.185879 9.43447ZM13.8124 5.3125H5.31244C4.2696 5.3125 3.38294 5.54625 2.64504 5.95319L13.8124 12.6151V5.3125ZM2.67904 28.0638C3.41004 28.4591 4.285 28.6875 5.31244 28.6875H13.8124V21.4221L2.67904 28.0638ZM-5.89799e-05 20.1875V22.8438C-5.89799e-05 23.4552 0.0647535 24.0444 0.192785 24.5985L7.58725 20.1875H-5.89799e-05ZM31.4048 5.97922C30.6579 5.55528 29.7531 5.3125 28.6874 5.3125H20.1874V12.6708L31.4048 5.97922ZM33.9999 13.8125V11.1562C33.9999 10.5751 33.9399 10.0146 33.8236 9.48441L26.5688 13.8125H33.9999Z" fill="#2E3192"/>
<path d="M26.5689 13.8125L33.8236 9.48441C33.4911 7.96291 32.6814 6.70331 31.4048 5.97922L20.1875 12.6708V5.3125H19.125V14.875H34V13.8125H26.5689ZM0 19.125V20.1875H7.58731L0.192844 24.5985C0.544 26.1152 1.37806 27.3604 2.67909 28.0638L13.8125 21.4221V28.6875H14.875V19.125H0ZM34 19.125H19.125V28.6875H20.1875V21.3663L31.3714 28.0383C32.6575 27.3222 33.4772 26.0695 33.8172 24.5501L26.5062 20.1875H34V19.125ZM13.8125 5.3125V12.6151L2.64509 5.95319C1.35416 6.66506 0.529125 7.91563 0.185406 9.43447L7.52462 13.8125H0V14.875H14.875V5.3125H13.8125Z" fill="#E6E7E8"/>
<path d="M19.125 14.875V5.3125H14.875V14.875H0V19.125H14.875V28.6875H19.125V19.125H34V14.875H19.125Z" fill="#BE1E2D"/>
<path d="M11.6545 13.8125L1.00295 7.45397C0.773982 7.79397 0.59017 8.16797 0.438232 8.56641L9.22883 13.8125H11.6529H11.6545ZM33.5165 25.5478L24.5846 20.1875H22.1111L32.9024 26.6788C33.1526 26.3292 33.3589 25.95 33.5165 25.5499V25.5478ZM32.2569 6.58272L20.171 13.8125L22.6248 13.8141L33.0538 7.57031C32.8211 7.14691 32.5757 6.87384 32.2569 6.58272ZM0.963107 26.4961C1.20208 26.86 1.48967 27.1896 1.81789 27.4757L13.8459 20.1875H11.4218L0.963107 26.4961Z" fill="#BE1E2D"/>
</g>
<defs>
<clipPath id="clip0_2227_843">
<rect width="34" height="34" fill="white"/>
</clipPath>
</defs>
</svg>

